<?xml version="1.0" standalone="no"?>
<!DOCTYPE svg PUBLIC "-//W3C//DTD SVG 1.1//EN" "http://www.w3.org/Graphics/SVG/1.1/DTD/svg11.dtd" >
<!--
2013-9-30: Created.
-->
<svg>
<metadata>
Created by iconfont
</metadata>
<defs>

<font id="iconfont" horiz-adv-x="1024" >
  <font-face
    font-family="iconfont"
    font-weight="500"
    font-stretch="normal"
    units-per-em="1024"
    ascent="896"
    descent="-128"
  />
    <missing-glyph />
    
    <glyph glyph-name="checked" unicode="&#59236;" d="M512 832C264.6 832 64 631.4 64 384s200.6-448 448-448 448 200.6 448 448S759.4 832 512 832z m0-840c-216.1 0-392 175.9-392 392s175.9 392 392 392 392-175.9 392-392-175.9-392-392-392zM663.9 534.2L452.6 322.9l-92.5 92.5c-16.4 16.4-43 16.4-59.4 0s-16.4-43 0-59.4l122.2-122.2c16.4-16.4 43-16.4 59.4 0l241 241c16.4 16.4 16.4 43 0 59.4s-43 16.4-59.4 0z"  horiz-adv-x="1024" />

    
    <glyph glyph-name="Share" unicode="&#59279;" d="M885.2 423.4c-11.1 7.1-24.8 7.1-36 0-11.1-7.1-18-20.3-18-34.6v-279.5c0-44.1-32.2-79.9-71.9-79.9l-536.6-3.2c-40 0-72.4 34.3-72.4 76.7V665.3c0 42.3 32.4 76.7 72.4 76.7h205c20 0 36.2 17.2 36.2 38.3 0 21.2-16.2 38.4-36.2 38.4h-205C142.8 818.7 78 750 78 665.3V103c0-40.7 15.3-79.7 42.4-108.4 27.1-28.8 63.9-44.9 102.3-44.9h536.6c38.2 0 74.8 16.8 101.7 46.8 27 29.9 42.1 70.6 42.1 112.9V388.8c0 14.3-6.8 27.5-17.9 34.6zM944 640.2c-1.7 5.9-4.8 11.5-9.2 16.2L816.5 781.7c-14.5 15.4-38 15.4-52.5 0s-14.5-40.3 0-55.7l57.4-60.8H644.8c-179.8 0-325.6-154.5-325.6-345 0-4.3 2.1-12.8 2.1-12.8 5.1-15.4 18.8-25.6 34.1-25.6s29 10.3 34.1 25.6c0 0 2 8.5 2 12.8 0 148.2 113.4 268.4 253.3 268.4 4 0 8-0.1 12.1-0.3v0.3h253.3c11.8 0 22.9 6.1 29.7 16.4 6.6 10.3 8.2 23.4 4.1 35.2z"  horiz-adv-x="1024" />

    
    <glyph glyph-name="chuangyezhishi" unicode="&#59293;" d="M820 832h-99.4v-42H820c7.6 0 14-6.4 14-14v-784c0-7.6-6.4-14-14-14H204c-7.6 0-14 6.4-14 14V776c0 7.6 6.4 14 14 14h194.6V832H204c-30.8 0-56-25.2-56-56v-784c0-30.8 25.2-56 56-56h616c30.8 0 56 25.2 56 56V776c0 30.8-25.2 56-56 56zM629.5 790v-322l-44.8 33.6-25.2 18.9-25.2-18.9-44.8-33.6V790h140m42 42h-224v-448l112 84 112-84V832z"  horiz-adv-x="1024" />

    
    <glyph glyph-name="bohao" unicode="&#59294;" d="M924.6 190.6l-121.8 97c-17.4 14.5-38.2 21.6-58.9 21.6-23.9 0-47.7-9.5-66.1-27.9L642 249.4c-7-6.3-15.9-9.5-24.9-9.5-6.4 0-12.8 1.6-18.6 4.9-49 28.2-90.1 71.6-127.8 109.4-37.4 37.5-71.8 69.1-100 118.2-8.4 14.7-6 33.3 6 45.3l32.5 32.6c34.4 34.4 37.5 87.6 6.3 125.2l-96.8 122-6.2 6.3C295.4 822.6 272 832 248.1 832c-23.8 0-48-9.4-66.7-28.2l-84.3-84.5C19 638 77.9 379.9 287.1 170.2 440.5 16.5 627.7-64 748.7-64c44 0 79.3 10.7 101 32.4l84.3 84.5c3.1 0 3.1 3.1 6.2 6.3 31.3 40.6 25 100.1-15.6 131.4z m-27.1-95l-3.1-3.1-84.3-84.5c-10.1-10.1-32.5-15.9-61.4-15.9-98.5 0-272.6 68.1-421.9 217.8-192 192.4-237.6 420.4-190 470l84.3 84.5 151.5-124.5c12.5-15.1 11.4-35.6-2.8-49.8l-32.5-32.6c-29.8-29.8-35.9-76.2-14.9-112.7 28.9-50.4 63.7-84.9 97.2-118.3l11.7-11.7 10.1-10.1c36.7-37 78.3-78.9 129.6-108.3 14.1-8.1 30.2-12.4 46.4-12.4 22.9 0 45 8.4 62.2 23.7l35.8 31.9 1.2 1.1 1.2 1.2c7.4 7.4 16.8 11.5 26.4 11.5 8.3 0 16.2-3 24-9.4l122.5-97.5c14.7-11.8 17.6-34.4 6.8-50.9zM614.7 562h249.8l-44.6-44.6c-10.9-10.9-10.9-28.7 0-39.6 10.9-10.9 28.7-10.9 39.6 0l92.4 92.4c4 4 6.5 8.9 7.6 14.1 0.1 0.4 0.1 0.7 0.2 1.1 0 0.1 0 0.2 0.1 0.3 0 0.3 0.1 0.6 0.1 0.8 0 0.2 0.1 0.4 0.1 0.6v0.6c0 0.3 0 0.5 0.1 0.8v0.5 0.9 0.7 0.7 0.6c0 0.3 0 0.6-0.1 0.9v0.4c0 0.4-0.1 0.7-0.1 1.1v0.1c-0.9 5.7-3.5 11.1-7.8 15.4l-92.4 92.4c-10.9 10.9-28.7 10.9-39.6 0-10.9-10.9-10.9-28.7 0-39.6l44.6-44.6h-250c-15.4 0-28-12.6-28-28s12.6-28 28-28z"  horiz-adv-x="1024" />

    
    <glyph glyph-name="dingbu" unicode="&#59295;" d="M496.4 612.8L70.1 186.4c-8.1-8.1-8.1-21.4 0.1-29.6 8.1-8.1 21.4-8.2 29.6-0.1l407.6 407.6c2.2 2.2 5.7 2.2 7.9 0l409.1-409.1c8.1-8.1 21.4-8.2 29.6-0.1 8.1 8.1 8.1 21.4-0.1 29.6L526 612.7c-8.2 8.1-21.5 8.2-29.6 0.1z"  horiz-adv-x="1024" />

    
    <glyph glyph-name="dianhuazixun" unicode="&#59296;" d="M248.1 776c6.4 0 15.6-1.7 23.1-10l0.8-0.9 0.9-0.9 4-4 94.8-119.5 0.4-0.5 0.4-0.5c12.5-15.1 11.4-35.6-2.8-49.8l-32.5-32.6c-29.8-29.8-35.9-76.2-14.9-112.7 28.9-50.4 63.7-84.9 97.2-118.3 3.8-3.8 7.8-7.7 11.7-11.6l10.1-10.1c36.7-37 78.3-78.9 129.5-108.3 14.1-8.1 30.2-12.4 46.4-12.4 22.9 0 45 8.4 62.2 23.7l35.8 31.9 1.2 1.1 1.2 1.2c7.4 7.4 16.8 11.5 26.4 11.5 8.3 0 16.2-3 23-8.6l0.5-0.4 0.5-0.4 121.8-97 0.3-0.3 0.4-0.3c15-11.5 17.9-34.2 7-50.6l-3.1-3.1-84.3-84.6c-10.1-10.1-32.5-16-61.4-16-25.6 0-54.8 4.4-87 13.1-34.4 9.3-70.4 23-107.2 40.8-81.4 39.5-160.1 96.2-227.8 163.9-46.9 47-87.6 98.3-120.9 152.5-29.8 48.6-53.3 99.4-68 147.1-13.3 43.2-19.4 83.4-17.5 116.2 1.4 24.8 7.5 44.7 16.9 54.7l83.8 84c7.6 7.5 17.2 11.7 27.1 11.7m0 56c-23.8 0-48-9.4-66.8-28.2L97 719.3C19 638 77.9 379.9 287.1 170.2 440.5 16.5 627.7-64 748.7-64c44 0 79.3 10.7 101 32.4l84.3 84.5c3.1 0 3.1 3.1 6.2 6.3 31.2 40.7 25 100.1-15.6 131.4l-121.8 97c-17.4 14.5-38.2 21.6-58.9 21.6-23.9 0-47.7-9.5-66.1-27.9L642 249.4c-7-6.3-16-9.5-24.9-9.5-6.4 0-12.8 1.6-18.5 4.9-49 28.2-90.1 71.6-127.9 109.4-37.4 37.5-71.8 69.1-100 118.2-8.4 14.7-6 33.3 6 45.3l32.5 32.6c34.4 34.4 37.5 87.6 6.2 125.2l-96.8 122-6.2 6.3C295.4 822.6 272 832 248.1 832zM586.9 728.6v-56c113.2 0 205.3-92.1 205.3-205.3h56c0.1 144.3-116.9 261.3-261.3 261.3zM586.9 616.6v-56c51.5 0 93.3-41.9 93.3-93.3h56c0.1 82.5-66.8 149.3-149.3 149.3zM586.9 832v-56c170.2 0 308.7-138.5 308.7-308.7h56C951.6 668.7 788.3 832 586.9 832z"  horiz-adv-x="1024" />

    
    <glyph glyph-name="chuanhucan" unicode="&#59297;" d="M172.2 176.1c-7.5 7.5-13.3 15.8-18.4 24.5l-80.9-80.9c-11.8-11.8-11.8-31.1 0-42.9s31.1-11.8 42.9 0l80.9 80.9c-8.7 5-17.1 10.9-24.5 18.4zM795.2 799.1c-11.8 11.8-31.1 11.8-42.9 0l-433-433c8.7-5.1 17-11 24.5-18.4 7.5-7.5 13.3-15.8 18.4-24.5l433.1 433.1c11.7 11.7 11.7 31-0.1 42.8zM258 322.5c16.2 0 31.4-6.3 42.9-17.8 23.7-23.7 23.7-62.1 0-85.8-11.5-11.5-26.7-17.8-42.9-17.8s-31.4 6.3-42.9 17.8c-23.7 23.7-23.7 62.1 0 85.8 11.4 11.5 26.7 17.8 42.9 17.8m0 60.7c-31.1 0-62.1-11.8-85.8-35.5-47.4-47.4-47.4-124.2 0-171.6 23.7-23.7 54.7-35.5 85.8-35.5s62.1 11.8 85.8 35.5c47.4 47.4 47.4 124.2 0 171.6-23.7 23.6-54.8 35.5-85.8 35.5zM643.3 556.2c-24.3 0-47.2 9.5-64.3 26.7-17.2 17.2-26.7 40-26.7 64.3 0 24.3 9.5 47.2 26.7 64.3 17.2 17.2 40 26.7 64.3 26.7 24.3 0 47.2-9.5 64.3-26.7 17.2-17.2 26.7-40 26.7-64.3 0-24.3-9.5-47.2-26.7-64.3-17.1-17.2-40-26.7-64.3-26.7zM643.3 707.9c16.2 0 31.4-6.3 42.9-17.8 23.7-23.7 23.7-62.1 0-85.8-11.5-11.5-26.7-17.8-42.9-17.8s-31.4 6.3-42.9 17.8c-23.7 23.7-23.7 62.1 0 85.8 11.5 11.5 26.7 17.8 42.9 17.8m0 60.6c-31.1 0-62.1-11.8-85.8-35.5-47.4-47.4-47.4-124.2 0-171.6 23.7-23.7 54.7-35.5 85.8-35.5s62.1 11.8 85.8 35.5c47.4 47.4 47.4 124.2 0 171.6-23.7 23.7-54.7 35.5-85.8 35.5zM450.3 338.1c-8.1 0-15.8 3.1-21.4 8.8l-85.8 85.8c-5.7 5.7-8.8 13.3-8.8 21.4s3.1 15.8 8.8 21.4l85.8 85.8c5.7 5.7 13.3 8.8 21.4 8.8 8.1 0 15.8-3.1 21.4-8.8l85.8-85.8c11.8-11.8 11.8-31.1 0-42.9l-85.8-85.8c-5.6-5.5-13.3-8.7-21.4-8.7zM450.3 539.9s0.1 0 0 0l85.7-85.6v-0.2l-85.6-85.6h-0.1-0.1l-85.6 85.6v0.2l85.7 85.6c-0.1 0 0 0 0 0m0 60.7c-15.5 0-31.1-5.9-42.9-17.7l-85.8-85.8c-23.6-23.6-23.6-62.2 0-85.8l85.8-85.8c11.8-11.8 27.3-17.7 42.9-17.7s31.1 5.9 42.9 17.7l85.8 85.8c23.6 23.6 23.6 62.2 0 85.8l-85.8 85.8c-11.8 11.8-27.4 17.7-42.9 17.7zM760.8 363.5l85.7-85.6v-0.2l-85.6-85.6h-0.1-0.1l-85.6 85.6v0.2l85.7 85.6c-0.1 0-0.1 0 0 0m0 60.7c-15.5 0-31.1-5.9-42.9-17.7l-85.8-85.8c-23.6-23.6-23.6-62.2 0-85.8l85.8-85.8c11.8-11.8 27.3-17.7 42.9-17.7s31.1 5.9 42.9 17.7l85.8 85.8c23.6 23.6 23.6 62.2 0 85.8l-85.8 85.8c-11.8 11.8-27.4 17.7-42.9 17.7zM643.5 223.6L379.1 14.1c-13.1-10.4-15.3-29.5-4.9-42.6 10.4-13.1 29.5-15.3 42.6-4.9l269.9 213.8-43.2 43.2zM953.5 430.5c-10.4 13.1-29.5 15.3-42.6 4.9L835 375.2l43.2-43.2 70.4 55.8c13 10.5 15.2 29.6 4.9 42.7zM539.8 11.7c-28 0-54 12.6-71.4 34.5-31.2 39.3-24.5 96.7 14.8 127.8 16.2 12.9 35.8 19.7 56.4 19.7 28 0 54-12.6 71.4-34.5 15.1-19.1 21.9-42.8 19.1-67-2.8-24.1-14.8-45.8-33.9-60.8-16.2-12.9-35.7-19.7-56.4-19.7zM539.6 163.3c18.7 0 36-8.4 47.6-23 10.1-12.7 14.6-28.6 12.7-44.7-1.9-16.1-9.9-30.5-22.6-40.6-13.7-10.8-28-13.1-37.6-13.1-18.7 0-36 8.4-47.6 23-10.1 12.7-14.6 28.6-12.7 44.7 1.9 16.1 9.9 30.5 22.6 40.6 13.7 10.9 28 13.1 37.6 13.1m0 60.7c-26.4 0-53-8.6-75.3-26.2-52.5-41.6-61.4-117.9-19.7-170.4 24-30.2 59.4-46 95.2-46 26.4 0 53 8.6 75.3 26.2 52.5 41.6 61.4 117.9 19.7 170.4-24 30.2-59.4 46-95.2 46z"  horiz-adv-x="1024" />

    
    <glyph glyph-name="dingwei" unicode="&#59298;" d="M512.8 831.9c-0.2 0.1-0.5 0.1-0.8 0.1-206.1-0.2-373.1-160.5-373.3-358.4 0-79.4 54.2-189.9 161.3-327.9 52-66.7 107.9-130.5 167.5-191.1 11.5-12 27.8-18.7 44.8-18.6h0.5c17.6 0.1 34.3 7.5 45.6 20.3 96.8 109.2 186.9 223.6 269.7 342.9 33.3 53.1 52.8 113.1 57.1 175 0.1 197.5-166.7 357.7-372.4 357.7z m-0.8-508.8c-79.3 0-143.6 62.7-143.6 140s64.3 140 143.6 140 143.6-62.7 143.6-140-64.3-140-143.6-140z"  horiz-adv-x="1024" />

    
    <glyph glyph-name="fanhui" unicode="&#59299;" d="M729.8 832h-31.1L263.1 384l435.6-448h31.1l31.1 32-404.5 416L760.9 800l-31.1 32z"  horiz-adv-x="1024" />

    
    <glyph glyph-name="diyiye" unicode="&#59300;" d="M754.7 832l-392-448 392-448h28l28 32-364 416 364 416-28 32h-28z m-541.4 0v-896H288V832h-74.7z"  horiz-adv-x="1024" />

    
    <glyph glyph-name="guanbi" unicode="&#59301;" d="M512 832C264.6 832 64 631.4 64 384s200.6-448 448-448 448 200.6 448 448S759.4 832 512 832z m0-868C280-36 92 152 92 384S280 804 512 804s420-188 420-420-188-420-420-420z m176.2 616.3c-5.2 0-10.3-2.1-14-5.8L512.1 411.6 350 574.5c-3.7 3.7-8.7 5.8-14 5.8-17.6 0-26.5-21.4-14-33.9l161.2-162-161.2-162c-12.5-12.5-3.6-33.9 14-33.9 5.2 0 10.3 2.1 14 5.8l162.1 162.9 162.1-162.9c3.7-3.7 8.7-5.8 14-5.8 17.6 0 26.5 21.4 14 33.9L541 384.4l161.2 162c12.5 12.5 3.7 33.9-14 33.9z"  horiz-adv-x="1024" />

    
    <glyph glyph-name="hongpei" unicode="&#59302;" d="M848 160.1c14.8 0 28.9-5.9 39.5-16.5 10.6-10.6 16.5-24.7 16.5-39.5v-0.1c0-14.8-5.9-28.9-16.5-39.5-10.6-10.6-24.7-16.5-39.5-16.5H176c-14.8 0-28.9 5.9-39.5 16.5-10.6 10.6-16.5 24.7-16.5 39.5v0.1c0 14.8 5.9 28.9 16.5 39.5 10.6 10.6 24.7 16.5 39.5 16.5h672m0 56H176c-61.6 0-112-50.4-112-112v-0.1c0-61.6 50.4-112 112-112h672c61.6 0 112 50.4 112 112v0.1c0 61.6-50.4 112-112 112zM526.5 238c-63.9 0-130.4 24.1-197.7 71.8-14.5 10.3-40.4 7.8-54.5 5.3-37.6-6.5-76.6-26.2-95.7-42.3-17.5-14.7-43.1-17.1-63.7-6l-3.6 2C96.7 276.7 86.9 290.6 85 306c-1.9 15.4 4.2 30.3 16.5 40.9 37.6 32.2 97.2 59.2 152 68.7 57.1 10 106.9 1.3 144.1-24.9 88.7-62.9 154.4-67.6 219.6-15.7 38.2 30.3 94.9 42 159.9 33 57.6-8 110.8-30.3 146-61.3 12-10.5 17.9-25.3 16.1-40.5-1.8-15.3-11.1-28.7-25.4-36.8l-3.6-2c-20.7-11.6-47.1-9-65.8 6.6-18.5 15.5-51.5 28.4-84.1 32.9-36.5 5-59.8-1.4-69.5-9.1-50-39.7-105.3-59.8-164.3-59.8zM512 720c81 0 158.8-24.6 224.7-71.1 31.8-22.4 60.1-49.4 84-80.2 16.9-21.7 31.4-45 43.3-69.6H159.9c11.9 24.6 26.4 47.9 43.3 69.6 23.9 30.8 52.2 57.7 84 80.2C353.2 695.4 431 720 512 720m0 56c-191.4 0-354.4-120.3-418.5-289.4-7.9-21 7.6-43.4 30-43.4h776.9c22.4 0 38 22.4 30 43.4C866.4 655.7 703.4 776 512 776z"  horiz-adv-x="1024" />

    
    <glyph glyph-name="huo" unicode="&#59303;" d="M830.4 274.9v-40.3c-0.5-2.1-1.4-3.9-1.8-6.1-4.4-21.2-6.6-43.3-13.3-63.6-19-61.1-54.8-111.6-104.9-153.2-38.6-32-82.3-54.9-131.9-66.3-16.4-3.9-33.1-7.1-49.6-8.7-10.3-1-31.2-1-41.6 0-2.2 0.2-92 15.6-131 34.6-73.9 36.4-127.5 90.5-151.8 168.4-5.3 16.5-7.5 34.3-11 51.1v38.6c1.8 9.6 3.1 19 4.9 28.6 8 41.2 27 77.5 52.2 111.3 23.9 31.6 49.1 62.4 71.2 94.8 24.3 35 36.3 74.5 29.2 117.3-1.3 8.6-2.6 16.9-4 25.6 0.9 0.5 1.8 0.5 2.6 0.5 54.5-54.9 63.2-122.1 55.3-194.8 1.8 2.1 3.5 3.4 4.9 5.2 46.1 60.2 66 126.4 50.8 200.9-9.8 47.1-30.1 90-64.1 125.1-15.5 14.7-33.7 27.2-50 41.1H364c1.4-0.4 2.6-1.3 4-1.8 30.1-2.6 58.5-11.3 85.4-23.8 61.5-28.6 111.6-71 153.1-123 61.5-76.2 101.3-160.6 108.8-258 3.1-37.3-0.9-73.2-11-108.7-4-13.4-9.3-26.4-14.2-40.7 19.9 8.2 34.9 20.8 46.5 36.8 34.9 48.5 44.7 102.2 36.7 161.9 2.6-3 4-3.9 4.9-5.7 20.8-32 36.7-66.3 44.7-103.1 3.1-14.6 4.8-29.4 7.5-44M207.9 796.2s209.3-83.3 80-164.1c-40.3-25.2-24.4 139.6-80 164.1zM724.3 707.1s138-104.8 25.5-138.1c-35.1-10.4 10.6 108.4-25.5 138.1zM587.5 832s57.7-66.9-1.9-71.6c-18.6-1.4 16.8 53 1.9 71.6z"  horiz-adv-x="1024" />

    
    <glyph glyph-name="hangyedongtai" unicode="&#59304;" d="M872.7 453.5h-70.4V776c0 30.8-25.2 56-56 56h-560c-30.8 0-56-25.2-56-56v-784c0-30.8 25.2-56 56-56h560c1 0 2 0.3 3 0.3 1.5-0.1 2.9-0.3 4.3-0.3 77 0 140 63 140 140V432.5c0.1 11.6-9.3 21-20.9 21zM172.3-8V776c0 7.6 6.4 14 14 14h560c7.6 0 14-6.4 14-14v-784c0-7.6-6.4-14-14-14h-560c-7.6 0-14 6.4-14 14z m679.4 84c0-36.2-20-67.4-49.4-84.2V411.5h49.4V76zM584.2 641.9v-84h-252v84h252m14.5 42H317.6c-15.2 0-27.5-12.3-27.5-27.5v-113.1c0-15.2 12.3-27.5 27.5-27.5h281.1c15.2 0 27.5 12.3 27.5 27.5V656.4c0 15.2-12.3 27.5-27.5 27.5zM605.2 389.9h-294c-11.6 0-21 9.4-21 21s9.4 21 21 21h294c11.6 0 21-9.4 21-21s-9.4-21-21-21zM515.3 291.9H311.2c-11.6 0-21 9.4-21 21s9.4 21 21 21h204.2c11.6 0 21-9.4 21-21-0.1-11.6-9.5-21-21.1-21zM437.2 193.9h-126c-11.6 0-21 9.4-21 21s9.4 21 21 21h126c11.6 0 21-9.4 21-21s-9.4-21-21-21z"  horiz-adv-x="1024" />

    
    <glyph glyph-name="jiameng" unicode="&#59305;" d="M932 139.4H820v112c0 15.4-12.6 28-28 28s-28-12.6-28-28v-112H652c-15.4 0-28-12.6-28-28s12.6-28 28-28h112v-112c0-15.4 12.6-28 28-28s28 12.6 28 28v112h112c15.4 0 28 12.6 28 28s-12.6 28-28 28zM507.9 776c44.9 0 87.1-17.5 118.8-49.2s49.2-73.9 49.2-118.8-17.5-87.1-49.2-118.8S552.8 440 507.9 440s-87.1 17.5-118.8 49.2-49.2 73.9-49.2 118.8 17.5 87.1 49.2 118.8S463 776 507.9 776m0 56c-123.7 0-224-100.3-224-224s100.3-224 224-224 224 100.3 224 224-100.3 224-224 224zM120 100.4C120 334.8 333.2 384 512 384c75.8 0 157.5-9.3 226.7-37.4l26 49.8C692.8 426.5 606 440 512 440c-247.4 0-448-90.5-448-339.6C64-9.7 285.7-64 508.6-64c38.9 0 77.7 1.8 115.4 5.2v56c-35.6-3.2-74-5.1-115.4-5.1-240.8-0.1-388.6 63-388.6 108.3z"  horiz-adv-x="1024" />

    
    <glyph glyph-name="huoguo" unicode="&#59306;" d="M363.2 155c-13.3 7.7-28.5 6.7-33.6-2.3L257 27.399999999999977c-5.2-8.9 1.5-22.5 14.8-30.2 13.3-7.7 28.5-6.7 33.6 2.3L378 124.79999999999995c5.2 8.9-1.5 22.5-14.8 30.2zM769.2 27.399999999999977l-72.5 125.4c-5.2 8.9-20.3 10-33.7 2.3-13.3-7.7-20-21.3-14.8-30.2l72.5-125.4c5.2-8.9 20.3-10 33.7-2.3 13.3 7.7 20 21.3 14.8 30.2zM379.2 331.29999999999995L426 567.7v2.7c0 6.5 4.5 12.2 9.7 12.2h155c5.1 0 9.7-5.7 9.7-12.2v-2.7l46.8-236.4h-268zM574.3 554.6L613 359.29999999999995H413.3l38.6 195.4h122.4m16.3 55.9h-155c-20.7 0-37.7-18.1-37.7-40.2l-52.8-267.2h336l-52.8 267.2c0 22.2-17 40.2-37.7 40.2zM885.9 303.1c-1.8-2.8-3.7-5.7-5.7-8.5-18.9-26.7-47-53-81.4-75.9-37.2-24.8-81.3-45.4-127.7-59.6-51.1-15.6-104.3-23.5-158-23.5s-106.9 7.9-158 23.5c-46.3 14.2-90.5 34.8-127.7 59.6-34.4 23-62.5 49.2-81.4 75.9-2 2.8-3.9 5.7-5.7 8.5h745.6m75.2 56h-896c0-125.9 200.6-279.6 448-279.6s448 153.7 448 279.6zM323.7 567.4c-17.6-14.6-44.2-3.1-46 19.6-2 25.3 7.7 50.5 15.5 70.9 9.7 25.3 14.6 40.5 11.5 52.2-2.6 9.7-0.1 20 7.1 27.2l0.3 0.3c14.6 14.6 40.4 9.2 46.3-10.5 9.4-31.4-3.1-63.7-12.9-89.2-8.4-21.7-13.1-36-11.9-46.5 1-9.3-2.8-18.2-9.9-24zM517.3 668.1c-17.5-8.8-44.1-1.9-45.9 11.9-2 15.3 7.7 30.5 15.5 42.8 9.7 15.3 14.6 24.5 11.5 31.6-2.6 5.9-0.1 12.1 7 16.4l0.3 0.2c14.5 8.8 40.3 5.6 46.2-6.4 9.3-19-3.1-38.5-12.9-53.9-8.3-13.1-13.1-21.8-11.9-28.1 1-5.5-2.8-10.9-9.8-14.5zM702.5 558c17.6-14.6 44.2-3.1 46 19.6 2 25.3-7.7 50.5-15.5 70.9-9.7 25.3-14.6 40.5-11.5 52.2 2.6 9.7 0.1 20-7.1 27.2l-0.3 0.3c-14.6 14.6-40.4 9.2-46.3-10.5-9.4-31.4 3.1-63.7 12.9-89.2 8.4-21.7 13.1-36 11.9-46.5-0.9-9.3 2.9-18.2 9.9-24z"  horiz-adv-x="1024" />

    
    <glyph glyph-name="jiantou-shang" unicode="&#59307;" d="M109.3 104.5c-40.3 0-60.5 55.2-32 87.5L480 648.5c17.7 20 46.3 20 64 0L946.7 192c28.5-32.3 8.3-87.5-32-87.5H109.3z"  horiz-adv-x="1024" />

    
    <glyph glyph-name="jiantou-xia" unicode="&#59308;" d="M914.7 663.5c40.3 0 60.5-55.2 32-87.5L544 119.5c-17.7-20-46.3-20-64 0L77.3 576c-28.5 32.3-8.3 87.5 32 87.5h805.4z"  horiz-adv-x="1024" />

    
    <glyph glyph-name="jiaoyi" unicode="&#59309;" d="M603 580.2H85c-11.5 0-21 9.4-21 21 0 11.5 9.4 21 21 21h518c11.5 0 21-9.4 21-21 0-11.5-9.4-21-21-21zM519 413.3H141c-11.5 0-21 9.4-21 21 0 11.5 9.4 21 21 21h378c11.5 0 21-9.4 21-21s-9.4-21-21-21zM365 601.2v-531.5c0-11.5-9.4-21-21-21-11.5 0-21 9.4-21 21V601.2c0 11.5 9.4 21 21 21s21-9.4 21-21zM539.6 825.9L344 630.3 148.4 825.9c-8.2 8.2-21.5 8.2-29.7 0s-8.2-21.5 0-29.7l210.4-210.4c8.2-8.2 21.5-8.2 29.7 0L569.3 796.2c8.2 8.2 8.2 21.5 0 29.7-8.2 8.1-21.6 8.1-29.7 0zM456 188a252 252 0 1 1 504 0 252 252 0 1 1-504 0ZM859.5 252.5c-7.2 10.9-22.8 12.1-31.6 2.4-10.8-11.8-19-26.5-27.5-40.5-15.6-25.9-31.8-52.8-52.3-57.2-11.9-2.6-27.1 2.3-45 14.5-32.5 22.2-70.3 43.1-103.8 29.9-25-9.8-38.3-35.1-46.2-59.4-3.8-11.8 3.3-24.3 15.3-27.1 10.7-2.5 21.4 4 24.8 14.4 7.4 22.8 15.5 30.6 21.4 33 11.6 4.5 33.4-4.1 64.8-25.5 28.2-19.2 53.6-26 77.6-20.8 38.2 8.3 60 44.6 79.4 76.6 9.5 15.8 16.6 26.5 22.5 33.5 5.8 7 6.9 16.8 1.8 24.5l-1.2 1.7z"  horiz-adv-x="1024" />

    
    <glyph glyph-name="kuaican" unicode="&#59310;" d="M382.2 475L72 783.5c-11 10.9-11 28.6-0.1 39.6s28.6 11 39.6 0.1l310.2-308.5c11-10.9 11-28.6 0.1-39.6-10.9-10.9-28.6-11-39.6-0.1zM572.4 475L262.1 783.5c-11 10.9-11 28.6-0.1 39.6s28.6 11 39.6 0.1l310.2-308.5c11-10.9 11-28.6 0.1-39.6-10.9-10.9-28.6-11-39.5-0.1zM902.5 467.2c-2.1-27.8-7.1-58.2-14.6-89.3-10.6-43.6-26.2-88-45-128.5-19.8-42.5-42.5-79.4-67.2-109.7-25-30.6-50.9-52.6-76.8-65.4-29-14.3-47.1-42.9-47.1-74.6 0-4.6-3.8-8.4-8.4-8.4H380.1c-4.6 0-8.4 3.8-8.4 8.4 0 31.7-18 60.2-47.1 74.6-25.9 12.8-51.8 34.8-76.8 65.4-24.8 30.2-47.4 67.1-67.2 109.7-18.9 40.5-34.4 84.9-45 128.5-7.6 31.1-12.5 61.5-14.6 89.3h781.5m57.2 56h-896v-26.3c0-161.2 97.6-404.2 236.1-472.7 9.5-4.7 15.9-13.8 15.9-24.4 0-35.6 28.8-64.4 64.4-64.4h263.2c35.6 0 64.4 28.8 64.4 64.4 0 10.6 6.4 19.7 15.9 24.4 138.5 68.5 236.1 311.5 236.1 472.7v26.3zM911.3 399.8H115c-15.5 0-28-12.5-28-28s12.5-28 28-28h796.3c15.5 0 28 12.5 28 28s-12.5 28-28 28zM651.7-0.2c0-4.6-3.8-8.4-8.4-8.4H380.1c-4.6 0-8.4 3.8-8.4 8.4 0 25.1-11.4 48.1-30.6 63.7h341.1c-19.1-15.6-30.5-38.6-30.5-63.7z"  horiz-adv-x="1024" />

    
    <glyph glyph-name="qingchu" unicode="&#59311;" d="M511.7 832.2c-247.4 0-448-200.6-448-448s200.6-448 448-448 448 200.6 448 448-200.6 448-448 448z m193.7-610c8.7-8.7 8.7-22.9 0-31.7-8.7-8.7-22.9-8.7-31.7 0l-162 162-162-162c-8.7-8.7-22.9-8.7-31.7 0-8.8 8.8-8.7 22.9 0 31.7l162 162-162 162c-8.8 8.7-8.7 22.9 0 31.7s22.9 8.8 31.7 0l162-162 162 162c8.7 8.8 22.9 8.8 31.7 0 8.7-8.7 8.7-22.9 0-31.7l-162-162 162-162z"  horiz-adv-x="1024" />

    
    <glyph glyph-name="kaocha" unicode="&#59312;" d="M288.4 578.1h448c15.4 0 28 12.6 28 28s-12.6 28-28 28h-448c-15.4 0-28-12.6-28-28s12.7-28 28-28z m308-135.6c0 15.4-12.6 28-28 28h-280c-15.4 0-28-12.6-28-28s12.6-28 28-28h280c15.4 0 28 12.6 28 28z m-308-135.7c-15.4 0-28-12.6-28-28s12.6-28 28-28h112c15.4 0 28 12.6 28 28s-12.6 28-28 28h-112zM820 832H204c-46.4 0-84-37.6-84-84v-728c0-46.4 37.6-84 84-84h249.1v56H204c-15.4 0-28 12.6-28 28V748c0 15.4 12.6 28 28 28h616c15.4 0 28-12.6 28-28v-371.6h56V748c0 46.4-37.6 84-84 84z m-10.9-744c15.5 24.7 24.9 53.8 24.9 85.2 0 88.9-72.1 161-161 161s-161-72.1-161-161 72.1-161 161-161c37.3 0 71.1 13.2 98.4 34.4l74.3-74.3c5.5-5.5 12.6-8.2 19.8-8.2 7.2 0 14.3 2.7 19.8 8.2 10.9 10.9 10.9 28.7 0 39.6L809.1 88z m-47.4 29.7l-9.5-15.2-0.8-0.6-1.1 1-1.1-1.3-0.8-1.1 0.6-0.5-11.9-9.3c-13.2-10.3-35.1-22.6-64-22.6-57.9 0-105 47.1-105 105s47.1 105 105 105 105-47.1 105-105c-0.1-19.5-5.6-38.1-16.4-55.4z"  horiz-adv-x="1024" />

    
    <glyph glyph-name="kaidiangonglue" unicode="&#59313;" d="M603 34H421c-11.5 0-21 9.4-21 21 0 11.5 9.4 21 21 21h182c11.5 0 21-9.4 21-21s-9.5-21-21-21zM603 132H421c-11.5 0-21 9.5-21 21s9.4 21 21 21h182c11.5 0 21-9.5 21-21 0-11.6-9.5-21-21-21zM547-64h-70c-11.5 0-21 9.5-21 21s9.4 21 21 21h70c11.5 0 21-9.5 21-21s-9.5-21-21-21zM302.4 649.6c8.2 8.2 8.2 21.5 0 29.7l-49.5 49.5c-8.2 8.2-21.5 8.2-29.7 0s-8.2-21.5 0-29.7l49.5-49.5c8.2-8.2 21.5-8.2 29.7 0zM512 720c11.5 0 21 9.4 21 21V811c0 11.5-9.5 21-21 21-11.6 0-21-9.5-21-21v-70c0-11.6 9.4-21 21-21zM771.1 728.8l-49.5-49.5c-8.2-8.2-8.2-21.5 0-29.7s21.5-8.2 29.7 0l49.5 49.5c8.2 8.2 8.2 21.5 0 29.7s-21.5 8.2-29.7 0zM183 461h-70c-11.6 0-21-9.4-21-21 0-11.5 9.4-21 21-21h70c11.5 0 21 9.5 21 21 0 11.6-9.5 21-21 21zM911 461h-70c-11.6 0-21-9.4-21-21 0-11.5 9.4-21 21-21h70c11.5 0 21 9.5 21 21 0 11.6-9.5 21-21 21zM540.4 690.4C388.5 707.1 260 588.5 260 440c0-65.6 25.3-125.1 66.4-169.9 8.3-9 22.2-9.7 30.9-1 7.8 7.8 8.4 20.5 0.9 28.5C323.4 335 302 385 302 440c0 129.6 118 232.2 252.2 205.9C635.3 630 700.9 565 717.5 484c14.8-71.9-7.7-139-51.5-186.3-7.5-8.1-6.9-20.8 0.9-28.6 8.6-8.6 22.6-7.9 30.8 1.1 46.8 51.1 73.1 121.2 64.8 197.7-12.6 115.7-106.4 209.9-222.1 222.5zM513.2 280.5c15.6-2.7 29.2 2.1 37.5 13.2 10.3 13.7 10.5 34.3 0.5 55-7.7 16-22.2 32.8-43.6 44.1 12.2 12.2 29.2 20.4 48.3 17.5 17.3-2.5 28.4-7.9 32.9-16.1 10.9-19.8-8.3-63.1-23.8-97.9-7.5-17-14.6-33-19.3-47.8-3.3-10.3 2.6-21.2 13-24.4 10.1-3.1 20.8 2.3 24.2 12.3 5.7 16.9 12.7 35 16.9 44.5 20.8 46.9 42.4 95.3 22.4 131.7-10.5 19.1-30.9 31-60.7 35.3-38.4 5.6-72.7-14.5-92.9-42.8-4.8 0.7-9.9 1.1-15.1 1.2-29.9 0.6-44.5-12.9-51.4-24.5-22.8-38.3 8.1-109.8 26.2-145.1 5-9.7 17-13.2 26.4-7.8 8.7 5 12.1 15.9 7.6 24.9-19.4 38.3-38.2 90.6-27.5 108.6 0.9 1.5 3.9 6 17 5.9-0.4-1.9-0.8-3.9-1.1-5.8-6.9-42 17.7-74.2 62.5-82z m-25.1 76.1l0.6 3.3c14.5-7.3 22.3-17.5 25.8-23.1 6.6-10.7 6.5-18.8 5.2-18.8-30.4 5.2-34 23.9-31.6 38.6z"  horiz-adv-x="1024" />

    
    <glyph glyph-name="QQ" unicode="&#59314;" d="M512 831.5c-247.4 0-448-200.6-448-448s200.6-448 448-448 448 200.6 448 448-200.6 448-448 448z m0-873.6c-235.1 0-425.6 190.5-425.6 425.6S276.9 809.1 512 809.1s425.6-190.5 425.6-425.6S747.1-42.1 512-42.1z m131.9 449.6c0.2 1.9 0.3 3.8 0.3 5.6 0 11.4-3 21.9-8.1 30.5 0.1 0.6 0.1 1.3 0.1 2 0 5.2-1.2 10.2-3.2 14.4-3.1 76.5-50.2 137.2-126.4 137.2S383.2 536.5 380.2 460c-2-4.3-3.2-9.2-3.2-14.4 0-0.6 0.1-1.3 0.1-2-5-8.5-8.1-19.1-8.1-30.5 0-1.9 0.1-3.8 0.2-5.6-12.2-4.9-28.3-26.5-40-55.9-15-37.4-17.5-73.2-5.4-79.9 8.4-4.6 21.4 5.9 33.6 25.1 4.8-20.9 16.8-39.9 33.9-55.1-17.9-7-29.7-18.5-29.7-31.4 0-21.3 31.7-38.6 70.8-38.6 35.3 0 64.5 14 69.9 32.4h8.4c5.4-18.4 34.7-32.4 69.9-32.4 39.2 0 70.8 17.3 70.8 38.6 0 12.9-11.7 24.4-29.7 31.4C639 257 651 276 655.8 296.9c12.2-19.3 25.2-29.7 33.6-25.1 12.1 6.7 9.7 42.4-5.4 79.9-11.8 29.4-27.8 51-40.1 55.8z"  horiz-adv-x="1024" />

    
    <glyph glyph-name="renling" unicode="&#59315;" d="M491 289.5l2.5-2.5c10.2-10.2 26.9-10.2 37.1 0l2.5 2.5 198 198c10.2 10.2 10.2 26.9 0 37.1l-2.5 2.5c-10.2 10.2-26.9 10.2-37.1 0L540 375.7v430c0 14.4-11.8 26.3-26.3 26.3h-3.5C495.8 832 484 820.2 484 805.7v-430.1L332.6 527.1c-10.2 10.2-26.9 10.2-37.1 0l-2.5-2.5c-10.2-10.2-10.2-26.9 0-37.1l198-198zM904 384H792v-56h112v-336H120V328h112v56H120c-30.8 0-56-25.2-56-56v-336c0-30.8 25.2-56 56-56h784c30.8 0 56 25.2 56 56V328c0 30.8-25.2 56-56 56z"  horiz-adv-x="1024" />

    
    <glyph glyph-name="quanbu" unicode="&#59316;" d="M271.4 762.5c36.8 0 71.4-14.3 97.5-40.4 26-26 40.4-60.7 40.4-97.5s-14.3-71.4-40.4-97.5c-26-26-60.7-40.4-97.5-40.4S200 501.1 174 527.2c-26 26-40.4 60.7-40.4 97.5s14.3 71.4 40.4 97.5c26 25.9 60.6 40.3 97.4 40.3m0 68.9c-114.2 0-206.8-92.6-206.8-206.8s92.6-206.8 206.8-206.8 206.8 92.6 206.8 206.8S385.6 831.4 271.4 831.4zM753.9 762.5c36.8 0 71.4-14.3 97.5-40.4 26-26 40.4-60.7 40.4-97.5s-14.3-71.4-40.4-97.5c-26-26-60.7-40.4-97.5-40.4s-71.4 14.3-97.5 40.4c-26 26-40.4 60.7-40.4 97.5s14.3 71.4 40.4 97.5c26.1 26 60.7 40.4 97.5 40.4m0 68.9c-114.2 0-206.8-92.6-206.8-206.8s92.6-206.8 206.8-206.8 206.8 92.6 206.8 206.8S868.1 831.4 753.9 831.4zM271.4 280c36.8 0 71.4-14.3 97.5-40.4 26-26 40.4-60.7 40.4-97.5s-14.3-71.4-40.4-97.5c-26-26-60.7-40.4-97.5-40.4S200 18.7 174 44.7s-40.4 60.7-40.4 97.5 14.3 71.4 40.4 97.5c26 26 60.6 40.3 97.4 40.3m0 68.9c-114.2 0-206.8-92.6-206.8-206.8 0-114.2 92.6-206.8 206.8-206.8S478.2 28 478.2 142.2s-92.6 206.7-206.8 206.7zM632.034393 20.349609a172.3 172.3 0 1 1 243.664744 243.673249 172.3 172.3 0 1 1-243.664744-243.673249ZM753.9 280c36.8 0 71.4-14.3 97.5-40.4 26-26 40.4-60.7 40.4-97.5s-14.3-71.4-40.4-97.5c-26-26-60.7-40.4-97.5-40.4s-71.4 14.3-97.5 40.4c-26 26-40.4 60.7-40.4 97.5s14.3 71.4 40.4 97.5c26.1 26.1 60.7 40.4 97.5 40.4m0 68.9c-114.2 0-206.8-92.6-206.8-206.8 0-114.2 92.6-206.8 206.8-206.8S960.7 28 960.7 142.2s-92.6 206.7-206.8 206.7z"  horiz-adv-x="1024" />

    
    <glyph glyph-name="quxiao" unicode="&#59317;" d="M578 384l368.6 370.4C975.2 783 955 832 914.6 832c-12 0-23.5-4.8-32-13.3L512 446.2 141.3 818.7c-8.5 8.5-20 13.3-32 13.3-40.3 0-60.5-49-32-77.6L446 384 77.3 13.6C48.8-15 69-64 109.3-64c12 0 23.5 4.8 32 13.3L512 321.8l370.7-372.5c8.5-8.5 20-13.3 32-13.3 40.3 0 60.5 49 32 77.6L578 384z"  horiz-adv-x="1024" />

    
    <glyph glyph-name="jingyingjiqiao" unicode="&#59318;" d="M917.9 678c0.1 0 0.1 0 0 0l0.1-587.9s0-0.1-0.1-0.1H106.1s-0.1 0-0.1 0.1V677.9s0 0.1 0.1 0.1h811.8m0.1 42H106c-23.1 0-42-18.9-42-42v-588c0-23.1 18.9-42 42-42h812c23.1 0 42 18.9 42 42V678c0 23.1-18.9 42-42 42zM806.2 576.4c-23.2 0-42-18.8-42-42 0-4.4 0.9-8.5 2.1-12.5L559.4 291.1c-1.5-1.7-3.6-2.5-5.6-2.5-2.7 0-5.4 1.4-6.8 4.1l-96.6 191c5 6.9 8.1 15.4 8.1 24.6 0 23.2-18.8 42-42 42s-42-18.8-42-42c0-6.1 1.3-11.8 3.7-17L231.3 306.5c-4.3 1.5-8.8 2.4-13.5 2.4-23.2 0-42-18.8-42-42s18.8-42 42-42 42 18.8 42 42c0 2.4-0.3 4.7-0.7 7l145.7 183.3c1.5 1.9 3.7 2.8 5.9 2.8 2.7 0 5.3-1.4 6.7-4.1l96.9-191.5c-8.4-7.7-13.8-18.6-13.8-30.9 0-23.2 18.8-42 42-42s42 18.8 42 42c0 6.4-1.6 12.5-4.2 17.9l216.8 242c2.9-0.6 5.9-1 9-1 23.2 0 42 18.8 42 42 0.1 23.2-18.7 42-41.9 42z"  horiz-adv-x="1024" />

    
    <glyph glyph-name="renzheng" unicode="&#59319;" d="M347.4 48.5c-2.7 0.6-76.1-8.4-140.8 16.2C110.6 101.3 64 135 64 175.1 64 199.4 80.6 284 113.3 303c22.1 12.8 52.3 24.7 89.8 35.4 40.7 11.6 80.9 19.2 104.5 23.2v41.1c-35.5 32.7-60.6 68.1-76.9 107.7-16.1 39.3-23.9 77.4-23.9 131C206.8 764.8 282.9 832 412.2 832 480 832 535.9 810.5 574 769.9c34.2-36.4 50.2-75.4 50.2-132.6 0-106.5-59.8-172.1-62.3-174.8-8.7-9.4-24.5-10.8-35.2-3.2-10.6 7.7-12.3 21.5-3.5 30.9 0.3 0.4 13.1 14.6 25.7 39.7 11.6 23.1 25.4 60.4 25.4 107.4 0 37.8-9.9 150.7-162.1 150.7-52.8 0-92.5-13.8-117.9-41.2-23.6-25.4-37.5-58.5-37.5-105.4 0-98.7 27.1-155.8 93.5-214.3 4.7-4.1 7.3-9.7 7.3-15.5v-68.4c0-10.9-8.9-20.1-21.1-21.8-0.6-0.1-90.3-21.3-148.6-38-76.7-21.9-73.9-94.3-73.9-108.3 0-14.8 29.4-38.3 112.1-69.8 61.4-23.4 133.9-14.2 134.5-14.3 13.3-3.2 21.2-15.3 17.6-27.1-3-9.7-13.1-16.2-24.1-16.2-2.3 0-4.5 0.3-6.7 0.8M532.9 383c-12.7-5.9-21-19.3-20.8-33.4 1-51.1 7.8-126 34.3-192.9C604 11.6 705-56.5 733.3-63.6c1-0.2 2-0.4 3-0.4 1.1 0 2.1 0.1 3.2 0.4 32.4 8.6 132 84.1 186.1 220.2 26.5 66.7 33.4 142 34.4 193.4 0.3 12.5-9.4 28-20.6 33.2-60.1 28-170.6 75.3-202.9 75.4m166-292.7M668.3 228.2c-6.9 5.2-16.3 3.3-21.2-4.1-4.8-7.4-3.1-17.4 3.8-22.6l62.2-45.8c2.5-1.9 5.6-2.7 8.7-2.7 3.8 0 7.9 1.6 10.7 4.6l116.7 124.8c5.9 6.3 5.9 16.6 0 22.9-5.9 6.3-15.5 6.3-21.4 0L720 190.1l-51.7 38.1z"  horiz-adv-x="1024" />

    
    <glyph glyph-name="shanchu" unicode="&#59320;" d="M775.7 608.4V-8h-560V608.4h560m0 56h-560c-30.9 0-56-25.1-56-56V-8c0-30.9 25.1-56 56-56h560c30.9 0 56 25.1 56 56V608.4c0 31-25.1 56-56 56zM932 664H92c-15.5 0-28-12.5-28-28s12.5-28 28-28h840c15.5 0 28 12.5 28 28s-12.5 28-28 28zM607.7 776v-112h-224V776h224m0 56h-224c-30.9 0-56-25.1-56-56v-112c0-30.9 25.1-56 56-56h224c30.9 0 56 25.1 56 56V776c0 30.9-25.1 56-56 56zM355.7 443.8c-15.5 0-28-12.5-28-28v-224c0-15.5 12.5-28 28-28s28 12.5 28 28v224c0 15.4-12.6 28-28 28zM495.7 436.7c-15.5 0-28-12.5-28-28v-224c0-15.5 12.5-28 28-28s28 12.5 28 28v224c0 15.5-12.6 28-28 28zM635.7 436.7c-15.5 0-28-12.5-28-28v-224c0-15.5 12.5-28 28-28s28 12.5 28 28v224c0 15.5-12.6 28-28 28z"  horiz-adv-x="1024" />

    
    <glyph glyph-name="shangyiye" unicode="&#59321;" d="M708 832l28-32-364-416 364-416-28-32h-28L288 384 680 832h28z"  horiz-adv-x="1024" />

    
    <glyph glyph-name="shouye" unicode="&#59322;" d="M512 776c3.3 0 8.1-0.9 12.4-5.1l1.8-1.8 1.9-1.6 334.6-279c2.6-3.1 4-7 4-11.1V-8H157.3V477.3c0 4.1 1.4 8 4 11.1l334.6 279 1.9 1.6 1.8 1.8c4.3 4.3 9.1 5.2 12.4 5.2m0 56c-18.8 0-37.6-7.2-52-21.5L122.9 529.3c-13.8-13.8-21.5-32.5-21.5-52v-522.7c0-10.3 8.4-18.7 18.7-18.7h784c10.3 0 18.7 8.4 18.7 18.7V477.3c0 19.5-7.7 38.2-21.5 52L564 810.5C549.6 824.8 530.8 832 512 832zM400.7 217.6c11.2 0 20.8 6.9 25.6 16.9 14.3 29.8 47.3 50.7 85.6 50.7s71.3-20.9 85.6-50.7c4.8-10.1 14.5-16.9 25.6-16.9 20.4 0 34.2 21.2 25.6 39.6-23 49.5-75.6 84-136.8 84s-113.8-34.6-136.8-84c-8.5-18.4 5.3-39.6 25.6-39.6z"  horiz-adv-x="1024" />

    
    <glyph glyph-name="shenhe" unicode="&#59323;" d="M479 511.3H241c-11.5 0-21 9.4-21 21 0 11.5 9.4 21 21 21h238c11.5 0 21-9.4 21-21 0-11.5-9.4-21-21-21zM395 381.1H241c-11.5 0-21 9.4-21 21 0 11.5 9.4 21 21 21h154c11.5 0 21-9.4 21-21 0-11.5-9.4-21-21-21zM563 641.5H241c-11.5 0-21 9.4-21 21 0 11.5 9.4 21 21 21h322c11.5 0 21-9.4 21-21 0-11.5-9.5-21-21-21zM363.5 90H135.9c-16.5 0-29.9 13.4-29.9 29.9V760.5c0 16.2 13.2 29.4 29.4 29.4h537.5c11.6 0 21-9.4 21-21v-140.5c0-11.6 9.4-21 21-21s21 9.4 21 21V775.1c0 31.2-25.5 56.8-56.8 56.8H120.8C89.6 831.9 64 806.4 64 775.1v-670.3c0-31.2 25.5-56.8 56.8-56.8h242.8c11.7 0 21.1 9.7 20.7 21.4v0.6c-0.4 11.2-9.6 20-20.8 20zM711 510.2c-78.9 0-143-63.8-143-142.1 0.1-50.2 26.7-96.6 69.8-122.1l-14-101.9h-99.4c-26.7 0-45.8-15.7-45.8-45.8v-35.5c0-31.7 17.7-45.8 45.8-45.8h375.3c19.8 0 36.5 4.9 36.5 45.8v37.4c-0.1 24.2-14.5 43.9-45.8 43.9h-92.7l-13.9 101.8c43.3 25.5 70 72 70.1 122.3 0.1 78.3-64 142-142.9 142m224.6-528.4h-455c-13.5 0-24.5-11.1-24.5-23.1 0-11.8 11-22.7 24.5-22.7h454.9c13.5 0 24.5 10.9 24.5 22.7 0 12-10.9 23.1-24.4 23.1z m0 0"  horiz-adv-x="1024" />

    
    <glyph glyph-name="sousuo" unicode="&#59324;" d="M478.1 757.3c44.1 0 87.1-8.4 127.8-24.8 42.1-17.1 79.8-42.1 112.3-74.6 60.6-60.6 95.7-141.1 99-226.6 3.3-85.1-25.2-167.6-80-232.3l-18.4-21.7-21.8-18.4c-31-26.2-66-46.5-104-60.2-37-13.3-75.8-20.1-115.3-20.1-44 0-87 8.3-127.6 24.8-42 17-79.7 42.1-112.1 74.5-32.4 32.4-57.5 70.2-74.6 112.3-16.5 40.7-24.8 83.6-24.8 127.8 0 44.1 8.4 87.1 24.8 127.8 17.1 42.1 42.1 79.8 74.6 112.3 32.4 32.4 70.2 57.5 112.3 74.6C391 749 434 757.3 478.1 757.3m0 74.7c-106 0-212-40.4-292.8-121.3-161.7-161.7-161.7-423.9 0-585.6C266.1 44.3 371.9 4 477.7 4c95.2 0 190.5 32.7 267.6 98l155.8-155.8c6.7-6.7 15.6-10.1 24.4-10.1 8.8 0 17.7 3.4 24.4 10.1 13.4 13.4 13.4 35.4 0 48.8L794.1 150.7c137.8 162.7 130.3 406.5-23.2 560C690.1 791.6 584.1 832 478.1 832z"  horiz-adv-x="1024" />

    
    <glyph glyph-name="tuijian" unicode="&#59325;" d="M816.3 423.3H568.5c-13.3 0-21.8 15.2-15.4 27.6l74.2 143.7c0.7 3.8 1.2 7.7 1.2 11.8 0 15.5-6 29.6-15.5 39.7l-37.6 39.6-207-220.2c-12.5-13.3-29.5-20.8-47.2-20.8H188.7c-28.5 0-51.5-24.5-51.5-54.8v-399.2c0-30.3 23.1-54.8 51.5-54.8H389v0.9c1.5-0.1 2.7-0.9 4.2-0.9h317.3c29.3 0 54.3 18.9 64.9 45.7l111.4 366.6c0 41.5-31.5 75.1-70.5 75.1zM322.5 16.2H217.2V365.3h105.3v-349.1zM234.5 743.4c-7.6 15.5-26.3 21.9-41.8 14.3-15.5-7.6-21.9-26.3-14.3-41.8 0 0 173.3-211.3 165.7-195.8L234.5 743.4zM516.7 831c-9.6 3.3-20.1-1.9-23.4-11.5 0 0-45.6-159.1-36-162.4 9.6-3.3 70.9 150.4 70.9 150.4 3.3 9.7-1.8 20.2-11.5 23.5zM858.3 701.9c-13.2 11.2-32.9 9.6-44-3.6 0 0-170.5-222.5-157.4-233.7 13.2-11.2 205 193.2 205 193.2 11.1 13.3 9.5 33-3.6 44.1z"  horiz-adv-x="1024" />

    
    <glyph glyph-name="xiala" unicode="&#59326;" d="M511.6 281.7L145.7 645.3 64 564.7l366.3-361.4 81.7-80.6 81.7 80.6L960 564.7l-81.7 80.6-366.7-363.6"  horiz-adv-x="1024" />

    
    <glyph glyph-name="weiye" unicode="&#59327;" d="M241.3 832l-28-32 364-416-364-416 28-32h28l392 448-392 448h-28zM736 832v-896h74.7V832H736z"  horiz-adv-x="1024" />

    
    <glyph glyph-name="weibo" unicode="&#59328;" d="M512 832C264.6 832 64 631.4 64 384s200.6-448 448-448 448 200.6 448 448S759.4 832 512 832z m0-873.6C276.9-41.6 86.4 148.9 86.4 384S276.9 809.6 512 809.6 937.6 619.1 937.6 384 747.1-41.6 512-41.6z m85.4 600.1c-10.3-2.4-15.4-10.5-14.1-19.8 2.6-9.3 11.5-13.9 21.8-12.8 29.5 5.8 62.9-2.4 84.6-24.4 21.8-22.1 28.2-52.4 18-79.2-1.3-4.7-1.3-8.1 1.3-12.8 2.6-3.5 6.4-7 10.2-8.1 9-2.4 19.3 2.3 23.1 10.5 11.6 38.4 3.9 80.3-26.9 111.8-30.7 31.3-76.9 42.9-118 34.8z m32.1-164.2c-6.4 2.3-11.5 3.5-7.7 10.5 7.7 17.5 7.7 32.6 0 43.1-15.4 19.8-57.7 18.6-105.2 0 0 0-15.4-5.8-11.5 4.7 7.7 22.1 6.4 39.6-5.1 50.1-25.7 23.3-95-1.2-154-54.8-42.2-39.5-67.6-80.1-69.2-116.4v-6.8c3-69.1 101.5-110.8 197.5-110.8 128.3 0 213 67.5 213 121.1 0 32.5-30.8 51.2-57.8 59.3zM474.2 239.5c-78.3-7-145 25.6-150.1 71-5.1 46.6 53.9 89.7 132.1 96.7 78.3 7 145-25.6 150.1-71 5.3-46.6-53.8-89.7-132.1-96.7z m186.1 181.6c7.7-2.4 16.7 1.2 19.3 9.3 6.4 18.6 2.6 38.4-12.8 53.6-15.4 15.1-37.2 21-57.7 17.5-9-1.2-14.1-9.3-11.6-16.3 1.3-8.1 10.2-12.8 18-10.5 10.3 2.3 20.5-1.2 28.2-8.1 7.7-7 9-17.5 6.4-26.8-2.6-8.2 2.5-16.3 10.2-18.7zM482 372.2c-37.2 9.3-79.5-8.1-95-37.3-16.7-30.3 0-64 37.2-74.5 38.5-11.7 84.7 5.8 100.1 38.4 15.4 31.5-3.8 64.1-42.3 73.4z m-28.3-78c-7.7-10.5-23.1-16.3-35.9-10.5-11.5 4.7-15.4 17.5-7.7 28s23.1 15.1 34.6 10.5c12.9-3.6 16.8-16.3 9-28z"  horiz-adv-x="1024" />

    
    <glyph glyph-name="xiangmu" unicode="&#59329;" d="M64 762.1v-84.4h896v84.4H64z m0-420.3h896v84.5H64v-84.5z m0-335.9h896v84.5H64v-84.5z"  horiz-adv-x="1024" />

    
    <glyph glyph-name="xiayiye" unicode="&#59330;" d="M316 832h28l392-448-392-448h-28l-28 32 364 416L288 800l28 32z"  horiz-adv-x="1024" />

    
    <glyph glyph-name="xihuan" unicode="&#59331;" d="M512-3c-20.8 0-40.8 6.3-57.7 18.1C173.6 212.2 75.1 325.7 64.1 464.8L64 466v49.2l0.1 1.3c13.1 160.3 122.1 243.3 217.8 252.4 13.7 1.4 27.5 2.1 40.8 2.1 92.9 0 145.6-36.1 189.3-81.6 43.6 45.5 96.3 81.6 189.2 81.6 13.3 0 27.1-0.7 41-2.1 95.6-9.2 204.6-92 217.7-252.2l0.1-1.3v-49.2l-0.1-1.2c-11-139.3-109.5-252.7-390.2-449.8-16.9-11.9-36.9-18.2-57.7-18.2z"  horiz-adv-x="1024" />

    
    <glyph glyph-name="xiaochi" unicode="&#59332;" d="M515.8 667.4c-15.7 0-29-12.4-29.8-28.3l-4.5-316.4c-0.8-16.4 11.9-30.5 28.3-31.4h1.5c15.7 0 29 12.4 29.8 28.3l4.5 316.4c0.8 16.4-11.9 30.5-28.3 31.4h-1.5zM253.4 752c-2.5 0-5.1-0.3-7.7-1-15.9-4.3-25.4-20.7-21.1-36.6L278.7 393c3.6-13.3 15.7-22.1 28.9-22.1 2.5 0 5.1 0.3 7.7 1 15.9 4.3 25.4 20.7 21.1 36.6l-54.1 321.4c-3.5 13.3-15.7 22.1-28.9 22.1zM370.2 664c-1.7 0-3.4-0.1-5.2-0.5-16.2-2.9-27.1-18.4-24.2-34.6l45.4-297.3c2.5-14.4 15.2-24.7 29.4-24.7 1.7 0 3.4 0.1 5.2 0.5 16.2 2.9 27.1 18.4 24.2 34.6l-45.4 297.3c-2.5 14.5-15.2 24.7-29.4 24.7zM652 832c-14.2 0-26.9-10.2-29.4-24.7L560 458.7c-2.9-16.2 8-31.7 24.2-34.6 1.7-0.3 3.5-0.5 5.2-0.5 14.2 0 26.9 10.2 29.4 24.7l62.6 348.6c2.9 16.2-8 31.7-24.2 34.6-1.8 0.4-3.5 0.5-5.2 0.5zM120 188.1l26.1-153.6c0-54.2 43.4-98.5 96.4-98.5h538.9c53 0 96.4 44.3 96.4 98.5l24.7 153.6H120zM753.7 696.6c-13.8 0-26.4-9.9-29.6-24.3L665 381.4c-3.7-16.5 6.4-33 22.5-36.6 2.1-0.5 4.2-0.7 6.3-0.7 13.8 0 26.4 9.9 29.6 24.3l59.2 290.9c3.7 16.5-6.4 33-22.5 36.6-2.2 0.5-4.3 0.7-6.4 0.7zM190.3 380.5h60.1c7.4 0 13.7-5 16.8-8 58.4-55.9 147.6-87.9 244.8-87.9s186.4 32 244.8 87.9c3.1 3 9.4 8 16.8 8h78.1c9.1 0 17-7.6 18.4-17.1L818.9 44l-0.8-4.7v-4.8c0-10.5-4-20.4-11.3-27.8-4-4.1-12.7-11-25.4-11H242.6c-12.8 0-21.4 6.9-25.4 11-7.3 7.4-11.3 17.3-11.3 27.8v5l-0.8 5-51.2 301.1c0.9 9 4.7 17.4 11.1 23.9 3.9 4.1 12.5 11 25.3 11m661.4 59.8h-78.1c-21.9 0-42.3-9.4-58.1-24.5-45.1-43.1-119.3-71.3-203.5-71.3s-158.5 28.2-203.5 71.3c-15.8 15.2-36.2 24.5-58.1 24.5h-60.1c-53 0-96.4-44.3-96.4-98.5l52.3-307.2c0-54.2 43.4-98.5 96.4-98.5h538.9c53 0 96.4 44.3 96.4 98.5l52.3 325.6c-0.1 44-35.3 80.1-78.5 80.1z"  horiz-adv-x="1024" />

    
    <glyph glyph-name="yincan" unicode="&#59333;" d="M955 553.6c8.5 11.9 5.8 28.3-6.1 36.8-11.9 8.5-28.2 5.8-36.7-6.1-1.8-2.7-182.1-250.8-397.1-253.2-1 0.1-2.1 0.2-3.2 0.2s-2.1-0.1-3.2-0.2c-215 2.4-395.1 250.5-397.1 253.2-8.3 11.9-24.9 14.4-36.7 6.1-11.9-8.5-14.6-24.9-6.1-36.8 4-5.8 55.1-76.2 136.1-144.4L142 334c-9.2-11.2-7.8-27.8 3.4-37.3 4.9-4.3 11-6.3 17-6.3 7.4 0 14.8 3.1 20.2 9.7l64.2 76.4c67-48.7 148.9-90.2 238.9-97.2V199c0-14.6 11.9-26.5 26.4-26.5 14.6 0 26.4 11.9 26.4 26.5v80.3c90.1 7 172.2 48.7 239.3 97.5l64.7-77c5.2-6.3 12.5-9.4 20.2-9.4 6 0 12.1 2 17 6.1 11.2 9.4 12.8 26 3.4 37.3l-63.6 75.8c80.6 68.1 131.6 138.3 135.5 144z"  horiz-adv-x="1024" />

    
    <glyph glyph-name="yinpin" unicode="&#59334;" d="M694.9 832c-13.4 0-25.4-9.6-27.9-23.1L559.9 262.3c-2.7-15.2 7.6-29.8 22.9-32.4 1.6-0.3 3.3-0.4 4.9-0.4 13.4 0 25.4 9.6 27.9 23.1l102.2 519 111.4-19.4c1.6-0.3 3.3-0.4 4.9-0.4 13.4 0 25.4 9.6 27.9 23.1 2.7 15.2-7.6 29.8-22.9 32.4L699.8 831.6c-1.7 0.3-3.3 0.4-4.9 0.4zM353.2 266.6l22.9-305.4c1.5-14.3 13.8-25.2 28.4-25.2H810c14.7 0 27 10.9 28.4 25.2l22.9 305.4H353.2zM331.9 831.7c-12.4 0-25-1.1-37.8-3.5-79.6-14.6-143.4-78.8-157.1-157.9-18.6-107.6 51.5-202.5 149.6-225.3l-5.1 60.2c-9.7 3.7-19 8.1-27.5 13.7l24.3 24.1-10 118.6C267 678 280 692 296.6 692h132.2l20.9 20.7c4.4-6.5 8-13.5 11.2-20.7h60.5C497 772.8 421.4 831.7 331.9 831.7z m28.3-128.4v69.6c18-3.6 34.7-10.8 49.6-20.5l-49.6-49.1z m-56.6 0L254 752.4c14.8 9.7 31.5 16.9 49.6 20.5v-69.6z m-110.2-39.6c3.7 17.8 10.9 34.4 20.7 49.1l49.6-49.1h-70.3z m20.7-105.1c-9.8 14.7-17 31.2-20.7 49.1h70.3l-49.6-49.1zM831.7 580l-47-588H429.9l-47 588h448.8m29.7 56H353.1c-16.9 0-30.1-14.3-28.4-30.8l51.4-644c1.5-14.3 13.8-25.2 28.4-25.2H810c14.7 0 27 10.9 28.4 25.2l51.4 644c1.7 16.5-11.5 30.8-28.4 30.8z"  horiz-adv-x="1024" />

    
    <glyph glyph-name="xianshi" unicode="&#59335;" d="M512 720C264.6 720 64 478.9 64 384c0-85 200.6-336 448-336s448 241.9 448 336c0 87.9-200.6 336-448 336z m0-616c-213.9 0-391.3 225.1-392 280 0 56.7 171.4 280 392 280 215.9 0 392-225.1 392-280 0-56.7-171.4-280-392-280z m0 420c-77.3 0-140-62.7-140-140s62.7-140 140-140 140 62.7 140 140-62.7 140-140 140z m0-224c-46.3 0-84 37.7-84 84s37.7 84 84 84 84-37.7 84-84-37.7-84-84-84z"  horiz-adv-x="1024" />

    
    <glyph glyph-name="yixuanzhe" unicode="&#59336;" d="M167.8 427.7c-23.7 24-62.4 24-86 0-23.7-24-23.7-63.3 0-87.3l258.1-262c23.7-24 62.4-24 86 0l516.3 524c23.7 24 23.7 63.3 0 87.3-23.6 24-62.4 24-86.1 0L382.9 209.3 167.8 427.7z"  horiz-adv-x="1024" />

    
    <glyph glyph-name="yirenzheng" unicode="&#59337;" d="M226.3 440.8l18.9-8.5-0.2 21.3 14.7 16-20.1 5.3-9.9 18.4-12.2-18-20.7-4.6 12.5-16.5-3-21.2zM584.7 605.3c-51.2 16.8-106.5 15.3-156.8-4.1C323.7 560.9 262.7 452 282.7 342.3l14.6 2.7c-18.8 102.7 38.4 204.6 135.9 242.4 46.9 18.2 99 19.5 146.8 3.8l4.7 14.1zM282.9 545.7l10.6 18.4 20.7 6.4-14.6 14.8 0.9 20.8-19.7-9.3-20.2 6.5 2.5-20.6-13.4-16.7 21.2-3.4zM389.4 637.3l17 12.8 21.6-2.4-7.6 19.4 9 18.8-21.7-0.9-16 14-5.9-19.9-18.9-10.1 18.2-11.5zM485.9 91.6l-19.7 8.8 1.3-20.7-14.1-15.1 20.7-5.8 11-18.2 11.5 17.1 20.9 3.9-13.7 16.4 2 20.6zM555.6 675.7l19.8-8.9-1.3 20.8 14.3 15.2-21 5.8-11 18.2-11.6-17.2-21.1-3.9 13.8-16.4-2-20.7zM350.3 801.8C120 712.6 5.1 452.7 94.2 222.3c89.1-230.4 349.1-345.2 579.5-256.1 230.4 89.2 345.3 349.1 256.1 579.5C840.7 776.1 580.7 890.9 350.3 801.8zM662.9-6c-215.1-83.2-457.8 24-541 239.1-83.2 215.1 24 457.8 239.1 541 215.1 83.2 457.8-24 541-239.1 83.3-215.1-24-457.8-239.1-541zM642.1 126.9l-16.9-12.8-21.4 2.5 7.6-19.4-8.9-18.7 21.5 0.8 16-14 5.7 19.8 18.8 10.1-18 11.5zM590.7 180.6c-46.9-18.2-99-19.5-146.8-3.8l-4.6-14.1c51.2-16.8 106.6-15.3 156.8 4.1C700.3 207.1 761.3 316 741.3 425.7l-14.6-2.7c18.7-102.7-38.5-204.6-136-242.4zM376.4 734.3C183.3 659.6 86.9 441.6 161.7 248.4c74.8-193.2 292.7-289.5 485.9-214.7 193.2 74.8 289.5 292.7 214.8 485.9-74.8 193.2-292.8 289.5-486 214.7z m454.3-400.7l-19.3 7.1 1.8-21.1-13.4-16.9 20.3-4 11.1-17.6 10.8 18.7 20 6C836.5 193 757.2 94.3 641.4 49.5c-184.4-71.4-392.6 20.6-463.9 205-71.4 184.5 20.6 392.6 205.1 464 184.4 71.4 392.6-20.6 463.9-205 25.6-66 31-138.2 15.5-207.3l-13.5 15.3 1.4 21.3-19.2-9.2zM751.2 208.3L740.8 190l-20.7-6.3 14.6-14.8-0.8-20.8 19.5 9.3 20.1-6.6-2.5 20.5 13.2 16.7-21 3.5zM478.8 248.5c-0.3 5.9-3.6 14.7-10 26.6-6.4-3-12.8-5-19-5.9 7.8-11.2 11.5-19 11-23.3-0.5-4.3-4-8.9-10.6-14l-54.6-47.3c-9.6-9-17.9-8.7-24.8 0.7l-32 36.9 72.8 63.1 7.2-8.3 12.1 10.5c-6.7 7-13.5 14.4-20.1 22.1L393.1 330c-5.4 6.2-10.8 12.8-16.2 19.8L303 285.9c-8.1-7-17.6-15-28.6-23.8l9.6-11c10.3 9.6 19.7 18.1 28.2 25.4l61.2 53.1 30.1-34.7-72.2-62.6c-4.5 5.1-8.7 10.4-12.8 15.9l-13.2-11.5c9-9.6 15.1-16.3 18.2-19.9l41.1-47.4c9.4-12.4 20.6-12.7 33.6-0.8l73.9 64.1c4.7 4.6 7 10 6.7 15.8zM463.4 402.8c-16 2.2-29.1 3.1-39.1 2.8 0.7-4.6 0.4-9.4-1-14.4 12.4 0.5 25.1-0.8 38-3.7-0.4 4.7 0.4 9.9 2.1 15.3zM526.3 291.2c-0.5 7.3-0.6 15.9-0.2 25.9 0.4 10 0.9 20.1 1.7 30.4-5.5 1.1-10.3 2.6-14.7 4.7-0.1-16.9-0.4-28.1-0.8-33.6l-28.2 32.5c-5.1 5.9-10.4 12.3-15.7 19.2l-17.1-14.8c-4.8-4.2-9.4-7.8-13.7-10.9l9.1-10.5c3.7 3.9 9.8 9.5 18.3 16.8l40.2-46.3c2.8-3.3 4.3-7.6 4.3-12.7 4.3 0 10-0.2 16.8-0.7zM582.3 368.7c13.3-4.6 28.6-6.8 45.8-6.6-1.7 5-0.6 11.1 3.4 18.4-15.7-2.7-30.3-1.8-43.8 2.6-13.4 4.4-25.7 9.9-36.6 16.6-10.9 6.6-21.1 14.7-30.6 24.2s-16.9 17.7-22.3 24.6c-5.3 6.9-8.1 11.6-8.3 14-5.2-4.5-10.1-8.4-14.8-11.9 8-8.5 14.9-16.1 20.6-22.7 5.7-6.6 12.1-14.5 19-23.6 6.9-9.1 12.6-19.4 17-30.7 4.4-11.4 7.1-24.1 8.1-38.3 1-14.2-0.1-27.6-3.4-40.1 7.7 2.2 13.5 2.7 17.2 1.4 1.9 11.3 2.1 25.2 0.9 41.9-1.2 16.6-6.8 34.8-16.8 54.5 16.5-11.7 31.3-19.8 44.6-24.3zM670.2 401.5c-0.6 11.1-0.9 20.2-1.1 27.5-0.2 7.2-0.3 15-0.4 23.3-5.4 1.1-10.8 2.8-16.2 5.3 0.6-5.9 1-12.3 1.2-19.2l-26.3 30.3c-6.7 7.7-12.9 15.2-18.6 22.5l-16-13.9c-5.5-4.8-10.8-9.1-15.9-12.8L586 454c4.8 4.8 9.8 9.5 15 13.9l5 4.3 43-49.6c4.1-4.8 5.9-11.3 5.3-19.5 5.2 0 10.5-0.5 15.9-1.6zM593.9 520.7l-33.7 5.5c0-5.2-0.6-10.1-1.6-14.9 8.5-1 19.8-3.1 33.7-6.5-0.4 4.9 0.2 10.2 1.6 15.9zM745.5 491.8l-15.4-13.4-39.7 45.8 12.7 11c6.6 5.7 12.8 10.8 18.6 15.2l-9.1 10.5c-5.6-5.5-11.5-10.9-17.7-16.3l-12.7-11-31.1 35.8 13.8 12c7.4 6.4 14.3 12.1 20.9 17.1l-9.1 10.5c-5.9-5.8-12.5-11.9-19.9-18.2l-34.7-30.1c-8.5-7.3-16.7-14.2-24.7-20.5l9.1-10.5c7.4 7.1 15.3 14.2 23.8 21.6l9.9 8.6 78.9-91-16.6-14.3-37.3 43c-7 8.1-12.4 14.7-16.2 19.8l-11.6-10c4.8-4.8 10.6-11.1 17.3-18.8l37.3-43c-5.5-4.8-11.4-9.6-17.6-14.3l9.1-10.5c5.6 5.5 12.8 12 21.6 19.7l48.5 42.1c6.2 5.4 13.6 11.4 22 18.1l-9.1 10.5c-7.7-7.6-14.8-14-21-19.4z"  horiz-adv-x="1024" />

    
    <glyph glyph-name="zhankaiquanbu" unicode="&#59338;" d="M473.9-44.8l4.5-4.7c18.5-19.3 48.7-19.3 67.2 0l4.5 4.7 246.6 262.5c18.5 19.3 18.5 50.9 0 70.2l-4.5 4.7c-18.5 19.3-48.7 19.3-67.2 0L562.7 118.1V782.3c0 27.3-21.4 49.7-47.5 49.7h-6.3c-26.1 0-47.5-22.3-47.5-49.7v-664.2L299.1 292.6c-18.5 19.3-48.7 19.3-67.2 0l-4.5-4.7c-18.5-19.3-18.5-50.9 0-70.2l246.5-262.5z"  horiz-adv-x="1024" />

    
    <glyph glyph-name="zaixianzixun" unicode="&#59339;" d="M512 776c53.8 0 105.8-9.3 154.8-27.6 46.9-17.5 88.9-42.5 124.9-74.3 35.5-31.4 63.3-67.7 82.6-108C894 524.9 904 481.2 904 436.2s-10-88.7-29.7-129.9c-19.3-40.3-47.1-76.7-82.6-108-36-31.8-78-56.8-124.9-74.3-48.9-18.3-101-27.6-154.8-27.6-12.6 0-26.1 0.7-41.3 2.2-2.6 0.2-5.2 0.4-7.8 0.4-16.9 0-33.1-5.2-46.8-14.9l-63-44.7 1.8 40.3c1.2 25.7-13 49.6-36.1 61C259 170.2 208.9 213 173.9 264.5c-17.4 25.6-30.8 53-39.9 81.6-9.3 29.2-14 59.6-14 90.3 0 45 10 88.7 29.7 129.9 19.3 40.3 47.1 76.7 82.6 108 36 31.8 78 56.8 124.9 74.3 49 18.1 101 27.4 154.8 27.4m0 56C264.6 832 64 654.8 64 436.2c0-148.7 92.8-278.2 230-345.8 3.1-1.5 5.1-4.8 4.9-8.3l-6.2-136.7c-0.2-5.5 4.1-9.4 8.9-9.4 1.7 0 3.5 0.5 5.1 1.6l141.7 100.7c4.2 3 9.3 4.6 14.4 4.6 0.8 0 1.6 0 2.5-0.1 15.4-1.5 30.9-2.5 46.7-2.5 247.4 0 448 177.2 448 395.8S759.4 832 512 832zM321.8 384m-56 0a56 56 0 1 1 112 0 56 56 0 1 1-112 0ZM512 384m-56 0a56 56 0 1 1 112 0 56 56 0 1 1-112 0ZM702.2 384m-56 0a56 56 0 1 1 112 0 56 56 0 1 1-112 0Z"  horiz-adv-x="1024" />

    
    <glyph glyph-name="zhongcan" unicode="&#59340;" d="M400 271.8H260c-46.3 0-84 37.7-84 84v168c0 46.3 37.7 84 84 84h140v56H260c-77 0-140-63-140-140v-168c0-77 63-140 140-140h140v56zM764 663.8H624v-56h140c46.3 0 84-37.7 84-84v-168c0-46.3-37.7-84-84-84H624v-56h140c77 0 140 63 140 140v168c0 77-63 140-140 140zM469.1 831.8h-26.3c-8.2 0-14.9-6.7-14.9-14.9v-866.3c0-8.2 6.7-14.9 14.9-14.9h26.3c8.2 0 14.9 6.7 14.9 14.9V816.9c0 8.2-6.7 14.9-14.9 14.9zM581.1 831.8h-26.3c-8.2 0-14.9-6.7-14.9-14.9v-866.3c0-8.2 6.7-14.9 14.9-14.9h26.3c8.2 0 14.9 6.7 14.9 14.9V816.9c0 8.2-6.7 14.9-14.9 14.9z"  horiz-adv-x="1024" />

    
    <glyph glyph-name="jiamengfei" unicode="&#59341;" d="M512 832C264.6 832 64 631.4 64 384s200.6-448 448-448 448 200.6 448 448S759.4 832 512 832z m146.9-572.8h-98.4v-97.6c0-27-21.8-48.9-48.8-48.9-27.1 0-49 21.9-49.1 48.9v97.5H365c-27 0-49 21.9-49 49 0 27 22 49 49 49h97.5v49H365c-27 0-49 21.8-49 48.9 0 27 22 48.9 49 48.9h86.8l-67.6 67.7c-19.2 19.1-19.2 50.2 0 69.3 19.1 19.1 50.2 19.1 69.2-0.1l64.9-64.9 64.8 64.9c19.1 19.2 50.2 19.2 69.2 0.1 19.1-19.3 19.1-50.2 0-69.3L584.8 504h74c27.3 0 49.1-21.8 49.1-48.9 0-27.1-21.8-48.9-49.1-48.9v0.1h-98.3v-49h98.4c27.3 0 49.1-22 49.1-49 0-27.2-21.8-49.1-49.1-49.1z"  horiz-adv-x="1024" />

    
    <glyph glyph-name="zhms-logo" unicode="&#59342;" d="M633.4 332.8c6.4-6.4 19.1-12.3 38-17.7 15.9-4.3 35-6.9 57.1-7.8-3.7-8.7-16.7-34.4-19.1-35.3-15.3 1.7-22.3 4.1-32.9 7.9-17.8 6.3-32.2 15.5-43.3 27.6-4 4.4-7.3 9.1-9.9 14-15.2-29.8-52.7-46.9-112.5-51.5l-3.2 14.3c15.2 3.4 28.2 7.2 39.1 11.5 22.8 9.7 36.8 22 43.5 37h-61.8l-10.4 0.1v14.5l10.4-0.1h66.2c0.9 4.6 3 12.4 3.8 23.5l33.1-0.5c3.2-0.2 4.8-1.1 4.8-3 0-1.2-3.5-16.8-4.1-20h75.3l10.4 0.3v-14.7l-10.4-0.1h-74.1z m1 108.9v-18.2l69.9-0.1v-14.7l-69.9 0.3v-19.8l89.5-0.3v-14.7l-201.3 0.5-10.3 0.1v14.6l10.3-0.1h76.6V409h-67.5v14.5h67.5v18.2l-80.8 0.3v14.3h49c-4 9.4-8.9 18.9-14.7 28.5l15.2 5.8c8.1-3.5 32.7-17.6 39.1-23.2l-30.1-11h53.8c4 8.9 7.9 20.3 11.7 34.3l36.3-5.1c3.8-0.5 5.8-1.9 5.8-4.4 0-2.6-22.9-19.9-30.1-24.8h63.3v-14.5l-83.3-0.2zM181.8 446V488.8h-36.3V446H64v-119.6h36.6v16.1h44.9V264h36.3v78.5h46.7v-13.6h36.4V446h-83.1z m-36.4-89h-44.9v74.5h44.9V357z m83.1 0h-46.7v74.5h46.7V357zM478.2 424.3l-1.7-19.5c-0.3-2.4-1-4.1-2.3-5.2-1.5-1.3-4.5-1.9-8.9-1.9h-30.7c-3.2 0-5.6 0.2-7.3 0.6-1.5 0.4-2.8 1-3.9 1.8-1.5 1.1-2.3 3.2-2.3 6.3v13.2c23.2 11.8 59.3 30.1 60.6 31 1.1 0.8 1.7 1.6 1.7 2.6 0 1.1-1.1 2.3-3.3 3.7L459.4 474c-11.2-13-24-25.3-38.2-37v49.5h-32.4v-92.1c0.1-6.3 1.6-10.8 4.4-13.6 2.2-2.2 5.5-3.9 9.8-5.4 3.3-1.2 9.2-1.8 17.7-1.8h42.4c7.8 0.1 13.4 1 16.8 2.8 1.8 1 3.7 2.4 5.6 4.2 2.9 2.5 4.7 7.5 5.4 15.1l2.1 27.6-14.8 1zM367.8 477.8l-31.7 14.8c-5.7-19.1-21.6-43.8-36-67.7-4.4-7.1-10.2-15.2-17.4-24l9.8-7.1c9 6.2 21 16.4 27.1 21.9v-41.6h32.3v72.1c5.4 7.4 21.2 26.7 21.2 28.9l-5.3 2.7zM486.5 341.8h-81v27.4h-35.1v-27.4h-84.7v-16.2l11 0.2h73.7V264h35.1v61.8h81l9.5-0.2v16.2zM910.8 315.6c7.8 2.9 29.5 10.9 30.8 11.8 1.3 0.9 2.3 2 2.3 3.4 0 0.5 0 1-0.1 1.1-0.5 0.8-4.3 4.4-4.3 4.4l-16.5 16V415c5.7-2.5 12.7-5.1 21.2-7.8 3.5 9.2 6 15.2 7.4 17.9 1.2 2.6 4.1 8 8.5 16.1-21.2 4-40.5 9.3-58 15.9-17.3 6.4-30.7 13.2-40.3 20.2 0 0 9.6 10 9.6 12.2L839.6 504c-3.4-5.1-20.9-24.2-26.6-30.3-15.3-16.3-30.4-29.6-45.1-40-8.4-6.1-18-12.1-28.8-17.9l6-12.2c11.4 3.4 21.2 6.9 29.5 10.6v-106.7c-9.1-0.5-19.4-0.7-31.1-0.7l10.1-29.5c1.4-4 2.5-6.3 3.5-6.9 0.6-0.5 1.4-0.7 2.3-0.7 2.3 0 48 12.8 64.9 17.3 14.6 3.8 29.1 8.5 43.5 14 16.7-15.5 42.9-25.5 78.7-30.1 2.9 7.8 4.8 13 5.8 15.4 1.1 2.8 3.7 8.6 7.8 17.5-24.8 2-44.2 5.1-58 9.2 2.2 0.4 5.1 1.3 8.7 2.6M853 467.2c7.1-9.5 16.6-18.8 28.8-27.8 8.4-6.4 16.3-11.7 23.7-15.6h-38.9v21.9h-33.4v-21.9h-38.6c25 13.4 44.5 27.9 58.4 43.4m-46.2-58h84v-18.4h-84v18.4z m84-53.1h-84v20.2h84v-20.2z m-69.5-45.6l-14.5-0.9v32h34c4.4-11 9.6-20.4 15.4-28.1-6.1-0.8-17.7-1.8-34.9-3m66 10.8l-2.5-2.1c-12.4 5.5-21.9 13-28.3 22.3h51.3c-6.2-6.7-13-13.4-20.5-20.2M833.2 445.6h33.4v-21.9h-33.4z"  horiz-adv-x="1024" />

    
    <glyph glyph-name="fenleiqq" unicode="&#58881;" d="M588.70523 654.953415C533.525751 601.34484 531.198485 512.001095 583.50379 455.471802c1.675632-1.826904 3.421081-3.618899 5.20144-5.341076a148.863575 148.863575 0 0 1 104.238248-42.437697 152.738473 152.738473 0 0 1 33.45445 3.781808 146.617764 146.617764 0 0 1 70.795435 38.737344h0.430544a143.918135 143.918135 0 0 1 39.563523 71.249251c10.961423 48.651498-4.270533 99.595352-39.959158 133.585073a149.329029 149.329029 0 0 1-208.523042-0.09309zM758.106929 538.508656a66.606355 66.606355 0 0 0-112.057863-32.232635 64.453634 64.453634 0 0 0-2.874173 89.506653c0.930906 1.012361 1.885086 2.001449 2.874173 2.943992a67.700171 67.700171 0 0 0 94.254277 0 64.674725 64.674725 0 0 0 17.803586-60.21801z m284.077735-54.364936l-20.42176 270.149048C1015.316377 820.759487 962.592164 872.506249 897.53344 876.218238L623.009132 895.534547a174.126049 174.126049 0 0 1-134.225072-49.244951L50.51331 416.106096C-14.091596 353.747001-17.128678 249.438935 43.740966 183.216579c2.18763-2.385448 4.445078-4.654532 6.772344-6.981799l259.315624-254.60291a174.905683 174.905683 0 0 1 244.118577 0l438.27075 430.043864a168.31952 168.31952 0 0 1 49.966403 132.467986z m-107.286967-76.229601L497.045855-22.106472a93.172098 93.172098 0 0 0-129.873084 0L107.857147 232.566256c-34.292266 33.291541-35.758443 88.785201-3.281445 123.938556 1.070542 1.163633 2.152721 2.327266 3.281445 3.362899L546.139533 790.109393A91.647739 91.647739 0 0 0 610.907348 816.454045c2.175994 0 4.340351-0.081454 6.504709-0.267636L891.459275 796.823556c25.867563-1.431269 46.871139-21.946119 49.512587-48.36059L961.381985 478.255737a89.099382 89.099382 0 0 0-26.484288-70.341618z"  horiz-adv-x="1042" />

    
    <glyph glyph-name="dianzian" unicode="&#58882;" d="M193.8 504.7v0.7h-67c-36.4-1.9-64.4-32.8-62.8-69.2v-429.4c-1.7-36.4 26.3-67.4 62.8-69.2h66c0-0.2 0-0.2 0.2-0.2h0.7c19.6-2.5 38 10.3 42.3 29.6V474.8c-4 19.4-22.4 32.4-42.2 29.9z m677 19.4l-199.5 0.2c-11.8 3.4-20.3 13.5-21.7 25.7V738.8c2.6 48.8-35 90.5-83.8 93-47.7 2.5-88.7-33.3-92.8-80.8-26.2-180.3-129.5-239.9-197.3-259.8 1.3-5.4 2-10.9 2-16.4V-33c0-10.7-2.5-21.3-7.5-30.9H753c45.3 6 83.7 36.4 99.9 79.2L954 391.9c20.2 67.2-11.2 134.7-83.2 132.2z"  horiz-adv-x="1024" />

    
    <glyph glyph-name="chanp" unicode="&#58884;" d="M431.6 418.5H270.8c-110.9-3.2-203.4 84-206.7 195-0.1 2.6-0.1 5.2-0.1 7.8 0.1 116.3 94.4 210.5 210.7 210.7 111 1.1 201.8-88 202.9-199 0-2.6 0-5.2-0.1-7.8v-160.8c-0.2-25.3-20.6-45.7-45.9-45.9z m-23 206.7c3 35.4-9.2 70.4-33.5 96.3-55.4 55.4-145.2 55.4-200.6 0s-55.4-145.2 0-200.6c25.9-24.3 60.9-36.5 96.3-33.6h137.8V625.2zM274.7-64C158.4-63.9 64.1 30.5 64 146.8c-1 111 88 201.7 199 202.8 2.6 0 5.2 0 7.8-0.1h160.8c25.3-0.2 45.7-20.7 45.9-45.9v-160.8c3.2-110.9-84.1-203.5-195-206.7-2.6-0.1-5.2-0.1-7.8-0.1zM174.4 247.1c-55.4-55.4-55.4-145.2 0-200.6 55.4-55.4 145.2-55.4 200.6 0 24.3 25.9 36.5 60.9 33.5 96.3V280.6H270.8c-35.5 3-70.5-9.2-96.4-33.5zM749.2 832c-111 1-201.8-88.1-202.8-199.1 0-2.6 0-5.1 0.1-7.7v-160.8c0.2-25.3 20.7-45.7 45.9-45.9h160.8c110.9-3.2 203.4 84 206.7 195 0.1 2.6 0.1 5.2 0.1 7.8-0.1 116.3-94.4 210.6-210.8 210.7z m100.3-311.1c-25.9-24.3-60.9-36.5-96.3-33.5H615.4V625.2c-3 35.4 9.2 70.4 33.5 96.3 54.8 55.9 144.6 56.8 200.6 2 55.9-54.8 56.8-144.6 2-200.6-0.7-0.6-1.3-1.3-2-2z m-96.3-171.4H592.4c-25.3-0.2-45.7-20.7-45.9-45.9v-160.8c-3.2-110.9 84.1-203.5 195-206.7 2.6-0.1 5.2-0.1 7.7-0.1C865.7-64 960 30.4 960 146.8c1 111-88.1 201.8-199 202.8-2.6 0-5.2 0-7.8-0.1z m96.3-303c-55.4-55.4-145.1-55.4-200.5-0.1l-0.1 0.1c-24.3 25.9-36.5 60.9-33.5 96.3V280.6h137.8c35.4 3 70.4-9.2 96.3-33.6 55.4-55.3 55.4-145.1 0-200.5z"  horiz-adv-x="1024" />

    
    <glyph glyph-name="liuchen" unicode="&#58885;" d="M512-64C264.6-64 64 136.6 64 384S264.6 832 512 832s448-200.6 448-448-200.6-448-448-448z m0 831c-211.5 0-383-171.5-383.1-383 0-211.5 171.5-383 383-383.1S895 172.4 895 384c0 211.5-171.5 383-383 383z m4.9-616.3H515c-123.4 2-221.8 103.7-219.7 227.1v0.2c1.8 68 33.4 131.7 86.4 174.2l35.7-66.3c-30.9-28.2-48.6-68-48.8-109.8-2.5-81.2 61.3-148.9 142.5-151.4 1.3 0 2.7-0.1 4-0.1 82.2-0.8 149.5 65.2 150.4 147.4 0.4 39.9-15.2 78.2-43.3 106.5-3.9 4.3-8.3 8.1-13.1 11.4-19.2 16.7-42.6 27.8-67.6 32.2l32 68.3c24.1-6.2 47-16.4 67.6-30.3 61.5-42.5 98.1-112.7 97.6-187.5 0.2-122.3-98.7-221.6-221-221.9h-0.8z m0 274.6c25.1 0.2 45.6-20 45.8-45.1 0.2-25.1-20-45.6-45.1-45.8-25.1-0.2-45.6 20-45.8 45.1v0.4c-0.1 25 20.1 45.3 45.1 45.4z m-43.3 85.2c-25 0.1-45.2 20.5-45.1 45.5 0 24.9 20.1 45.1 45 45.1s45.1-20.1 45.1-45v-0.1c0.2-25-20-45.4-45-45.5z"  horiz-adv-x="1024" />

    
    <glyph glyph-name="mendian" unicode="&#58886;" d="M179 211.7v-183.8c1.6-12 11-21.4 23-23h620.3c12 1.6 21.4 11 23 23V211.7c0.5 40.5 69.8 38.3 68.9 0v-183.8c-0.3-49.9-40.2-90.6-90.1-91.9H211.3c-48.7 0-101.3 40.7-101.3 91.9V211.7c0.4 37.4 68.5 37.2 69 0z m682.3 99.7c-28-15-59.3-22.7-91-22.3-56.3 0.1-109.4 26-144.2 70.3-36-44.8-48.2-70.3-104.5-70.3-55.1 1.8-87.8 27.3-123.6 70.3-34.8-44.4-88-70.3-144.3-70.4-31.2-0.6-62 7.1-89.3 22.3-62.8 35.3-101.3 102.1-100.3 174.1 0 20.6 3.1 41 9.2 60.7 0 1.6 1.6 3.2 1.6 4.8L162.6 765c18.4 42.9 38 67 85.1 67h528.4c47.1 0 67-27.2 91.2-70.3l80.1-209.2c0-3.2 1.5-4.8 1.5-8 6-19.7 9.7-40.1 11-60.7 0.4-71-37.3-136.8-98.8-172.4h0.2z m21.7 214c-1.1 1.3-1.6 3.1-1.4 4.8l-80 207.6c-6.3 19.2-37.3 25.3-48.2 25.3H270.9c-18.5-0.2-35.6-9.7-45.4-25.3l-84.6-209.2c-1.1-0.6-1.7-1.9-1.5-3.1-18.9-57.9 5.3-121.2 57.9-151.8 17.5-8.7 36.9-13.1 56.4-12.8 42.1 0.1 80.9 22.7 101.9 59.2 2.3 5.8 5.5 11.1 9.4 15.9 17.3 17.7 45.8 18.1 63.5 0.7 0.8-0.8 1.5-1.6 2.3-2.4 3.2-3.9 5.9-8.2 7.9-12.8 21.9-36.8 42-59.1 82.8-59.1s40.3 22.3 62.2 59.1c2.4 5.2 5.5 10.1 9.4 14.3 16.9 18.2 45.3 19.2 63.4 2.4l2.4-2.4c3.9-4.2 7.1-9.1 9.4-14.4 21.1-36.4 59.9-58.9 102-59 20.2-1.3 40.3 3.1 58.1 12.7 50.5 31.6 73.1 93.6 54.6 150.3z m-612.1-15.1c-32.8 0-32.8 68.9 0 68.9h482.4c38 0 38-67.5 0-68.9H270.9z"  horiz-adv-x="1024" />

    
    <glyph glyph-name="zixunlanm" unicode="&#58887;" d="M362.7 211.7H247.8c-12.7 0-23-10.3-23-23s10.3-23 23-23h114.9c12 1.5 21.5 11 23 23-0.9 12.3-10.7 22.1-23 23z m229.7 137.8H247.8c-12.7 0-23-10.3-23-23s10.3-23 23-23h344.6c12 1.5 21.5 11 23 23-0.9 12.4-10.7 22.2-23 23z m0 137.9H247.8c-12.7 0-23-10.3-23-23s10.3-23 23-23h344.6c12 1.5 21.5 11 23 23-0.9 12.3-10.7 22.1-23 23z m0 137.8H247.8c-12.7 0-23-10.3-23-23s10.3-23 23-23h344.6c12 1.5 21.5 11 23 23-0.9 12.4-10.7 22.2-23 23z m308.9 153.2H871c-15.9 0-28.7-12.9-28.7-28.7S855.1 721 871 721c12.2-0.8 21.4-11.4 20.6-23.6-0.1-1.1-0.2-2.2-0.5-3.3v-666.3c-3-11.2-11.8-19.9-23-23h-91.9V717.1c-0.4 63.3-51.6 114.5-114.9 114.9H177.6c-63-0.5-113.8-51.9-113.6-114.9v-666.3c-0.2-63 50.6-114.4 113.7-114.9h690.4c48.9 2.6 88.2 41.2 91.9 90V692.2c0 49.8-24.7 86.2-58.7 86.2zM132.9 50.9V717.1c3 24 21.9 42.9 45.9 45.9h482.5c24.2-3 43.3-21.8 46.7-45.9v-666.3c-3.4-24.1-22.6-43-46.7-45.9H178.9c-24 3.1-42.9 22-46 46z"  horiz-adv-x="1024" />

    
    <glyph glyph-name="pingpai" unicode="&#58888;" d="M754.3 706.4c-4.8 5.8-10 11.4-15.6 16.5H190c-2.4-5.5-5.5-10.8-9-15.7L66.9 551c-3.7-9.8-3.9-20.6-0.7-30.6l373.2-509.1 33.2-17 33.3 16.9 355.7 507.6c6.1 9.4 5.8 21.5-0.7 30.6l-106.6 157zM722 672.1l83.1-118.6H638.9l-66.5 118.6H722z m-199.5 0L589 553.5H339.6l66.5 118.6h116.4z m-315.9 0h149.6l-66.5-118.6H123.5l83.1 118.6z m-66.5-169.6h149.7l116.4-355.8-266.1 355.8zM472.6 79l-133 423.6H589L472.6 79z m66.6 67.8L639 502.6h149.6L539.2 146.8z m249.4 597.8c0.4-15.7 13.5-28 29.1-27.6 15.7 0.4 28 13.5 27.6 29.1-0.4 15.4-13 27.6-28.3 27.6-16-0.2-28.6-13.2-28.4-29.1z m57.4-82.7c0-15.6 12.7-28.3 28.3-28.3 15.6 0 28.3 12.7 28.3 28.3 0 15.6-12.6 28.3-28.3 28.4-15.6 0-28.3-12.7-28.3-28.4z m57.4-83.4c0.4-15.6 13.4-28 29.1-27.6 15.6 0.4 28 13.4 27.6 29.1-0.4 15.3-13 27.6-28.3 27.6-15.9-0.3-28.6-13.2-28.4-29.1z"  horiz-adv-x="1024" />

    
    <glyph glyph-name="zhishijm" unicode="&#58889;" d="M201.4 202.6c11.2-1.5 22.3 3.5 28.6 12.9l2 2.3 1.3 2.7c4.4 5.2 9.8 9.3 16 12.1 32 14.6 67.1 21.1 102.3 19.1 37.5 1.5 74.8-5.4 109.2-20.4 8.8-3.7 16.7-9.1 23.3-15.9l1.6-2.1 2-1.7c7.3-7.9 17.7-11 27.6-9.4 0.5-0.1 1-0.2 1.5-0.2 9.7-1.1 19.4 2.5 26 9.6l2 1.7 1.6 2.1c6.6 6.8 14.6 12.2 23.3 15.9 34.4 14.9 71.8 21.9 109.2 20.4 35.1 2 70.2-4.6 102.3-19.1 6.2-2.8 11.6-6.9 16-12.1l1.3-2.7 2-2.3c9-13.6 27.3-17.3 40.9-8.3 9.4 6.3 14.4 17.4 12.9 28.6V624l-3 5.2C839.7 648.1 825 664.9 808 679c-37.1 32.6-85 50.2-134.3 49.4-68.1 1-117.6-17.9-150.4-50.5-2.8-2.7-5.5-5.4-8.1-8.3-2.5 2.9-5.2 5.7-8 8.3-32.6 32.6-82 51.4-149.7 50.6-49.6 1-97.7-16.7-135-49.4-17.1-14.1-31.7-31-43.3-49.8l-3-5.2v-388.2c-2.3-16.2 9-31.1 25.2-33.3zM555 646.5c24 23.9 61.7 38.3 118 37.5h0.7c38.6 0.7 76.2-13.1 105.1-38.6 9.5-8.1 18.2-17.1 25.8-27 1.7-2.2 3.4-4.4 4.9-6.7V268c-2.2 1.3-4.4 2.5-6.7 3.6-38.6 18.3-81.2 26.8-123.9 24.6-44.4 1.6-88.6-6.9-129.2-25-3.1-1.3-6.1-2.8-9-4.5V618.1l-0.6 4.9c-0.3 1-0.6 1.9-0.9 2.9 4.4 7.6 9.6 14.5 15.8 20.6z m-329.3-28.2c7.7 9.9 16.3 18.9 25.8 27 28.9 25.6 66.4 39.4 105.1 38.6H357.5c56.2 0.8 94-13.6 118-37.5 6.2-6.1 11.4-13 15.6-20.5-0.3-1-0.6-1.9-0.8-2.9l-0.6-4.9v-351.4c-2.9 1.6-5.9 3.1-9 4.4-40.6 18-84.8 26.6-129.2 25-42.7 2.1-85.3-6.3-124-24.6-2.3-1.1-4.5-2.3-6.7-3.6V611.6c1.6 2.3 3.2 4.5 4.9 6.7zM959.8 89.1V504.5c0 12.4-10 22.4-22.4 22.4-12.4 0-22.4-10-22.4-22.4v-386c-11.5 9.4-23.9 17.8-37 25-53 30.2-113 45.7-173.9 44.9-60.2 1.8-118.9-18.7-164.9-57.7-9.3-7.8-17.9-16.4-25.5-25.7-8.6 10.5-18.3 20.1-29.1 28.5-46.7 37.2-105.1 56.6-164.8 54.8-60.9 0.8-121-14.8-173.9-44.9-13.1-7.2-25.5-15.6-37-25v386C108 516.7 97.3 526 85 525.2c-11.1-0.8-19.9-9.6-20.7-20.6v-415.4c-2-16.7 10-31.9 26.7-33.9 10.2-1.2 20.4 2.8 27 10.8l1.7 1.7c3.6 3.9 7.4 7.5 11.4 10.9 11.6 9.9 24.1 18.8 37.4 26.4 46.1 26.2 98.4 39.6 151.4 38.9 49.3 1.8 97.6-14 136.2-44.6 10.8-8.8 20.4-18.9 28.7-30.1 1.7-2.3 3.3-4.6 4.8-7-0.1-8.5 4.7-16.8 13-20.5 0 0 0.1 0 0.1-0.1 11.2-5.1 24.5-0.2 29.7 11 2.3 4.5 4.9 8.9 7.8 13 8.1 11.7 17.7 22.4 28.5 31.7 37.8 31.8 86 48.5 135.4 46.7 53 0.7 105.3-12.7 151.4-38.9 13.3-7.6 25.8-16.4 37.4-26.4 4-3.4 7.8-7 11.4-10.9l1.7-1.7c10.7-13 30-14.8 43-4.1 7.9 6.6 12 16.8 10.8 27z"  horiz-adv-x="1024" />

    
    <glyph glyph-name="diyi" unicode="&#58890;" d="M879.6 41l-131.3 13.1L695.8-64 509.6 258 328.2-64l-52.5 118.2L144.4 41l215.5 380.2L514.2 332l148.2 85.4L879.6 41zM812.7 305.4L512 129.8 211.3 305.4V656.5L512 832l300.7-175.5v-351.1zM512 832L211.3 656.5v-351.1L512 129.8l300.7 175.6V656.5L512 832z m240.6-491.5L512 200 271.4 340.5V621.4L512 761.8l240.6-140.4v-280.9z"  horiz-adv-x="1024" />

    
    <glyph glyph-name="dier" unicode="&#58891;" d="M879.6 41l-131.3 13.1L695.8-64 509.6 258 328.2-64l-52.5 118.2L144.4 41l215.5 380.2L514.2 332l148.2 85.4L879.6 41zM812.7 305.4L512 129.8 211.3 305.4V656.5L512 832l300.7-175.5v-351.1zM512 832L211.3 656.5v-351.1L512 129.8l300.7 175.6V656.5L512 832z m240.6-491.5L512 200 271.4 340.5V621.4L512 761.8l240.6-140.4v-280.9z"  horiz-adv-x="1024" />

    
    <glyph glyph-name="disan" unicode="&#58892;" d="M879.6 41l-131.3 13.1L695.8-64 509.6 258 328.2-64l-52.5 118.2L144.4 41l215.5 380.2L514.2 332l148.2 85.4L879.6 41zM812.7 305.4L512 129.8 211.3 305.4V656.5L512 832l300.7-175.5v-351.1zM512 832L211.3 656.5v-351.1L512 129.8l300.7 175.6V656.5L512 832z m240.6-491.5L512 200 271.4 340.5V621.4L512 761.8l240.6-140.4v-280.9z"  horiz-adv-x="1024" />

    
    <glyph glyph-name="xin-l" unicode="&#59343;" d="M933.3 514.3l-255.3 39c-10.4 1.6-19.2 8.2-23.7 17.7L540.4 813.9c-11.3 24.1-45.6 24.1-56.9 0L369.7 571c-4.5-9.5-13.3-16.2-23.7-17.7l-255.3-39c-25.3-3.9-35.6-34.8-17.7-53.2l186.6-191.5c7-7.1 10.1-17.2 8.5-27.1l-44-269.9c-4.2-25.9 23.2-45.4 46.2-32.6l226.5 125.4c9.5 5.2 20.9 5.2 30.4 0L753.6-60c23-12.7 50.4 6.7 46.2 32.6l-43.9 269.9c-1.6 9.9 1.6 19.9 8.5 27.1L951 461.1c17.9 18.3 7.6 49.3-17.7 53.2zM496.5 135.1L310.2 30.4c-8.8-4.9-19.4 2.5-17.7 12.5L328.4 256c1.7 9.9-1.5 20.1-8.5 27.3L155.3 451.6c-6.9 7.1-2.8 19.1 7 20.4l219.5 28.6c10.6 1.4 19.8 8.1 24.4 17.9L501 721.2c4.3 9.2 17.5 9.2 21.8 0l94-202.7c4.5-9.7 13.5-16.4 24.1-17.9l219.2-31.2c9.7-1.4 13.8-13.3 6.9-20.3l-163-167c-7-7.1-10.1-17.1-8.6-27L729 41.9c1.6-10-9.1-17.3-17.8-12.3L527.4 134.9c-9.5 5.5-21.3 5.6-30.9 0.2z"  horiz-adv-x="1024" />

    
    <glyph glyph-name="xin" unicode="&#59344;" d="M933.3 514.2l-255.3 39c-10.4 1.6-19.2 8.2-23.7 17.8L540.4 813.9c-11.3 24.1-45.6 24.1-56.9 0L369.7 571c-4.5-9.5-13.3-16.2-23.7-17.8l-255.3-39c-25.3-3.9-35.6-34.8-17.7-53.1l186.6-191.5c7-7.2 10.1-17.2 8.5-27.1l-43.9-269.8c-4.2-26 23.2-45.4 46.2-32.7l226.5 125.4c9.5 5.2 20.9 5.2 30.4 0L753.6-60c23-12.7 50.4 6.7 46.2 32.7l-43.9 269.9c-1.6 9.9 1.6 19.9 8.5 27.1L951 461.1c17.9 18.3 7.6 49.3-17.7 53.1z"  horiz-adv-x="1024" />

    
    <glyph glyph-name="xiangmuku" unicode="&#59345;" d="M856.7 831.4H165.8c-22.3 0-40.3-18.2-40.3-40.7v-852c2.1-1.4 2.8-1.9 4.8-3.3L499.8 106c3.7 1.5 7.6 2.3 11.5 2.3 3.9 0 7.8-0.8 11.5-2.3l369.5-170.5c2.1 1.4 2.8 1.9 4.8 3.3v852c-0.1 22.4-18.2 40.6-40.4 40.6z m-17.6-807.3l-292.4 135-1 0.4-1 0.4c-10.7 4.5-22 6.7-33.6 6.7-11.6 0-22.9-2.3-33.6-6.7l-1-0.4-1-0.4-292.4-135V773h655.8v-748.9zM627 624.7H395.5v-58.4H627v58.4z m0-175.2H395.5v-58.4H627v58.4z"  horiz-adv-x="1024" />

    
    <glyph glyph-name="jiamengzixun" unicode="&#59346;" d="M555.6 612.7v-68.6H337.7v68.6h217.9m32.4 59.1H305.3c-14.7 0-26.7-11.9-26.7-26.7v-133.4c0-14.7 11.9-26.7 26.7-26.7H588c14.7 0 26.7 11.9 26.7 26.7V645.1c0 14.7-12 26.7-26.7 26.7zM586.7 373.3h-280c-15.5 0-28 12.5-28 28s12.5 28 28 28h280c15.5 0 28-12.5 28-28s-12.6-28-28-28zM496.8 261.3H306.7c-15.5 0-28 12.5-28 28s12.5 28 28 28h190.2c15.5 0 28-12.5 28-28-0.1-15.5-12.6-28-28.1-28zM717.2 776l0.1-0.1v-783.8l-0.1-0.1H176.1l-0.1 0.1V775.9l0.1 0.1h541.1m0.1 56H176c-30.8 0-56-25.2-56-56v-784c0-30.8 25.2-56 56-56h541.3c30.8 0 56 25.2 56 56V776c0 30.8-25.2 56-56 56zM848 570.7V-8h-74.7V570.7H848m0 56h-74.7c-30.9 0-56-25.1-56-56V-64H848c30.9 0 56 25.1 56 56V570.7c0 30.9-25.1 56-56 56z"  horiz-adv-x="1024" />

    
    <glyph glyph-name="paihangbang" unicode="&#59347;" d="M586.7 776v-653.3H437.4V776h149.3m21.2 56H416.2c-19.3 0-34.9-15.6-34.9-34.9v-695.6c0-19.3 15.6-34.9 34.9-34.9h191.6c19.3 0 34.9 15.6 34.9 34.9V797.1c0 19.3-15.6 34.9-34.8 34.9zM381.3 533.3v-410.7H232V533.3h149.3m21.2 56H210.9c-19.3 0-34.9-15.6-34.9-34.9v-453c0-19.3 15.6-34.9 34.9-34.9h191.6c19.3 0 34.9 15.6 34.9 34.9v453c-0.1 19.3-15.7 34.9-34.9 34.9zM792 402.7v-280H642.7v280H792m21.1 56H621.5c-19.3 0-34.9-15.6-34.9-34.9v-322.3c0-19.3 15.6-34.9 34.9-34.9h191.6c19.3 0 34.9 15.6 34.9 34.9V423.8c0 19.3-15.6 34.9-34.9 34.9zM932-64H92c-15.5 0-28 12.5-28 28s12.5 28 28 28h840c15.5 0 28-12.5 28-28s-12.5-28-28-28z"  horiz-adv-x="1024" />

    
    <glyph glyph-name="meishizhuanti1" unicode="&#59350;" d="M249.4 552c-15.5 0-28 12.5-28 28V804c0 15.5 12.5 28 28 28s28-12.5 28-28v-224c0-15.5-12.6-28-28-28zM756.9 552c-15.5 0-28 12.5-28 28V804c0 15.5 12.5 28 28 28s28-12.5 28-28v-224c0-15.5-12.6-28-28-28zM418.5 720c-15.5 0-28 12.5-28 28V804c0 15.5 12.5 28 28 28s28-12.5 28-28v-56c0-15.5-12.5-28-28-28zM594 720h-12.6c-12 0-21.7 9.7-21.7 21.7V804c0 15.5 12.5 28 28 28s28-12.5 28-28v-62.3c0-12-9.7-21.7-21.7-21.7zM513.3 635.9c0.6-0.9 1.2-2 1.9-3.3L594.5 468l4.2-8.6 6.7-6.7c10.5-10.5 31.7-31.7 60.9-34.4l174.8-27.1 1.2-0.2 1.2-0.1c1.8-0.2 3.1-0.5 4-0.8-0.5-0.9-1.5-2.4-3.5-4.5L710.2 257.7l-0.5-0.5-0.5-0.5c-24.3-24.3-25.6-62.7-25.6-70.2v-4.7l0.8-4.6 30.3-178.9c0.2-2.1 0.2-3.9 0.2-5.4-1.2 0.4-2.8 1.1-4.6 2L552.2 80l-4.3 2.3-4.6 1.5c-12.8 4.3-25.8 5.2-34.5 5.2s-21.7-0.9-34.5-5.2l-4.6-1.5-4.3-2.3-158-85.1c-1.7-0.8-3.3-1.5-4.6-1.9-0.1 1.5 0 3.3 0.2 5.3L332.8 174c7.6 30.7-7.8 66.2-24.3 82.7L180.2 385.2c-2 2-3 3.4-3.6 4.4 1.1 0.5 2.6 1 4.6 1.3l0.8 0.1 0.8 0.1 178.1 27.2c27.3 2.6 60.1 21.7 72.6 51.6L512 633.1l1.1 2.3 0.2 0.5m0.2 58.1c-21.4 0-42.8-12.2-52-36.7L382 492.2c-3.1-9.2-18.3-18.3-27.5-18.3l-180.3-27.5c-24.5-3.1-45.8-18.3-52-39.7-6.1-21.4 0-42.8 18.3-61.1L269 217.2c6.1-6.1 12.2-24.5 9.2-30.6l-30.6-180.3c-3.1-24.5 3.1-48.9 21.4-61.1 9.2-6.1 21.4-9.2 30.6-9.2 9.2 0 21.4 3.1 33.6 9.2l158.9 85.6c4.6 1.5 10.7 2.3 16.8 2.3s12.2-0.8 16.8-2.3l158.9-85.6c12.2-6.1 23.7-9.2 34.4-9.2s20.6 3.1 29.8 9.2c18.3 12.2 24.5 36.7 21.4 61.1l-30.6 180.3c0 9.2 3.1 24.5 9.2 30.6l134.5 128.4c18.3 18.3 24.5 39.7 18.3 61.1-6.1 21.4-24.5 36.7-52 39.7L672.5 474c-9.2 0-21.4 12.2-27.5 18.3l-79.5 165.1c-12.2 24.4-30.6 36.6-52 36.6z"  horiz-adv-x="1024" />

    
    <glyph glyph-name="jiamengzhishi" unicode="&#59348;" d="M843.7 832H180.3c-33.2 0-60.3-25.2-60.3-56v-784c0-30.8 27.1-56 60.3-56h663.4c33.2 0 60.3 25.2 60.3 56V776c0 30.8-27.1 56-60.3 56zM180.3-9.399999999999977c-3.1 0-5 1.4-5.6 2.1V775.2c0.6 0.7 2.4 2.1 5.6 2.1h107v-786.7h-107z m669 2.1c-0.6-0.7-2.4-2.1-5.6-2.1H343.3V777.3h224.9v-206.6l74.6 56 74.7-56V777.3h126.2c3.1 0 5-1.4 5.6-2.1v-782.5z"  horiz-adv-x="1024" />

    
    <glyph glyph-name="shijiantu" unicode="&#58893;" d="M512-64C264.6-64 64 136.6 64 384S264.6 832 512 832s448-200.6 448-448-200.6-448-448-448z m0 821.3c-206.2 0-373.3-167.1-373.3-373.3S305.8 10.7 512 10.7 885.3 177.8 885.3 384 718.2 757.3 512 757.3z m136.6-545.8L487 304.8c-13 8.6-12.3 17.1-12.3 24.2 0 17.9 0.1 50.2 0 55V570.7c0 20.6 16.7 37.3 37.3 37.3s37.3-16.7 37.3-37.3V384c-0.1-5.4 0-23.7 0-23.7L686 276.2c17.9-10.2 24.2-33 14-50.9s-33-24.2-50.9-14c-0.2 0-0.3 0.1-0.5 0.2z"  horiz-adv-x="1024" />

    
    <glyph glyph-name="zhuiwen" unicode="&#59349;" d="M895.4 748.8l25.9 45-66.1 38.1-26-45zM817 765.7L616.2 418.6l2.7-63.5c-0.2-3.7 3.9-6.1 7-4l56.4 29.4 200.8 347.1-66.1 38.1zM898.3 465.1V48c0-27.8-22.6-50.4-50.4-50.4h-672c-27.8 0-50.4 22.6-50.4 50.4V664c0 27.8 22.6 50.4 50.4 50.4h417.7c17 0 30.8 13.8 30.8 30.8S610.6 776 593.6 776H175.9c-61.9 0-112-50.1-112-112v-616c0-61.9 50.1-112 112-112h672c61.9 0 112 50.1 112 112V465.1c0 17-13.8 30.8-30.8 30.8-17 0.1-30.8-13.7-30.8-30.8z"  horiz-adv-x="1024" />

    
    <glyph glyph-name="yincang" unicode="&#59351;" d="M955 553.6c8.5 11.9 5.8 28.3-6 36.8-11.9 8.5-28.2 5.8-36.7-6.1-1.8-2.7-182.1-250.8-397.1-253.2-1 0.1-2.1 0.2-3.2 0.2s-2.1-0.1-3.2-0.2c-215 2.4-395.1 250.5-397.1 253.2-8.3 11.9-24.9 14.4-36.7 6.1-11.9-8.5-14.6-24.9-6.1-36.8 4-5.8 55.1-76.2 136.1-144.4L142 334c-9.2-11.2-7.8-27.8 3.4-37.3 4.9-4.3 11-6.3 17-6.3 7.4 0 14.8 3.1 20.2 9.7l64.2 76.4c67-48.7 148.9-90.2 238.9-97.2V199c0-14.6 11.9-26.5 26.4-26.5 14.6 0 26.4 11.9 26.4 26.5v80.3c90.1 7 172.2 48.7 239.3 97.5l64.7-77c5.1-6.3 12.5-9.4 20.2-9.4 6.1 0 12.1 2 17 6.1 11.2 9.4 12.8 26 3.4 37.3l-63.6 75.8c80.6 68.1 131.6 138.3 135.5 144z"  horiz-adv-x="1024" />

    
    <glyph glyph-name="xiaoxi" unicode="&#59352;" d="M512 720.4c33.2 0 65.4-6.3 95.6-18.8 29.2-12 55.4-29.3 77.9-51.3 22.4-21.9 40-47.3 52.3-75.7 12.7-29.2 19.1-60.3 19.1-92.3v-218.9c0-60.2 17.2-119.1 49.7-170.2l1.9-3H215.6l1.9 3c32.5 51.1 49.7 110 49.7 170.2V482.3c0 32 6.4 63.1 19.1 92.3 12.3 28.3 29.9 53.8 52.3 75.7 22.5 22 48.7 39.2 77.9 51.3 30.1 12.5 62.3 18.8 95.5 18.8m0 42c-158.4 0-286.8-125.4-286.8-280.1v-218.9c0-52.2-14.9-103.3-43.1-147.7L166.4 91c-11.9-18.7 1.9-42.8 24.4-42.8h642.6c22.5 0 36.2 24.1 24.4 42.8l-15.7 24.7C813.9 160 799 211.2 799 263.4V482.3c-0.2 154.7-128.6 280.1-287 280.1zM615.9 48c-5.6-13.8-13.9-26.4-24.7-37.2C570-10.4 541.9-22 512-22c-29.9 0-58 11.6-79.2 32.8-10.8 10.8-19.1 23.4-24.7 37.2h207.8m50.1 42H358c0-85.1 68.9-154 154-154 85 0 154 68.9 154 154zM564.1 809.5c0 9.5-6.9 17.6-16.3 19.3-11.6 2.1-23.6 3.2-35.8 3.2-12.2 0-24.2-1.1-35.8-3.2-9.4-1.7-16.3-9.8-16.3-19.3 0-12 10.8-21.3 22.6-19.2a168.58 168.58 0 0 0 59 0c11.8-2.1 22.6 7.2 22.6 19.2z"  horiz-adv-x="1024" />

    
    <glyph glyph-name="yanzhengma" unicode="&#59353;" d="M319.8 233.1V510h-51L212 461v-54.4l56.9 49v-222.4h50.9z m103.5 45.5v-45.5h169.8v45.5H485.2l78 89.8c19.2 22.2 29.8 36.5 29.8 63.4 0 49.8-35.3 80.5-84.7 80.5-47.9 0-85.1-30.3-85.1-80.9h51c0 26.8 17.3 35.4 34.1 35.4 21.6 0 33.7-14 33.7-34.6 0-12.8-4.3-21.4-14.5-33.5L423.3 278.6z m310.9-2.3c-20 0-37.2 11.3-38 36.2h-51c0.8-57.9 43.6-81.7 89-81.7 47.9 0 88.7 27.2 88.7 82.4 0 33.4-16.1 52.5-36.1 63C805.2 385.9 819 403 819 433c0 46.7-35.7 79.3-85.1 79.3-47.1 0-84.3-29.6-85.5-78.9h51c1.2 21 15.3 33.5 34.5 33.5 18.4 0 34.1-12.1 34.1-35.4 0-19.4-10.6-34.6-35.3-34.6h-7.4V353h7.4c25.1 0 39.2-15.2 39.2-38.1-0.1-25-15.8-38.6-37.7-38.6z m85.8 481H204c-77.3 0-140-62.1-140-138.8v-27.2c0-15.3 12.5-27.8 28-27.8s28 12.4 28 27.8v27.2c0 46 37.6 83.3 84 83.3h616c46.4 0 84-37.3 84-83.3v-27.2c0-15.3 12.5-27.8 28-27.8s28 12.4 28 27.8v27.2c0 76.7-62.7 138.8-140 138.8z m112-552.9c-15.5 0-28-12.4-28-27.8v-27.2c0-46-37.6-83.3-84-83.3H204c-46.4 0-84 37.3-84 83.3v27.2c0 15.3-12.5 27.8-28 27.8S64 192 64 176.6v-27.2c0-76.7 62.7-138.8 140-138.8h616c77.3 0 140 62.1 140 138.8v27.2c0 15.4-12.5 27.8-28 27.8z"  horiz-adv-x="1024" />

    
    <glyph glyph-name="wodezixun" unicode="&#59354;" d="M226 531a42 42 0 1 1 84 0 42 42 0 1 1-84 0ZM442 531m-42 0a42 42 0 1 1 84 0 42 42 0 1 1-84 0ZM586.243801 501.343173a42 42 0 1 1 59.413554 59.38038 42 42 0 1 1-59.413554-59.38038ZM652 790c33.4 0 64.9-13.3 88.8-37.5 24-24.3 37.2-56.5 37.2-90.6v-284.5c0-34.1-13.2-66.3-37.2-90.6-23.9-24.2-55.4-37.5-88.8-37.5H272.5l-10.8-7.5L106 133.3V633.6c0 24.9 3.7 47.9 10.9 68.5 6.6 18.7 16 35.1 27.9 48.5 11.2 12.7 24.5 22.5 39.3 29.2 14.9 6.7 31 10.1 47.9 10.1h420m0 42.1H232c-92.4 0-168-76.5-168-198.4v-555.8c0 0.4 0.4 0.5 1.2 0.5 2.9 0 10.7-2 19.7-2s19.2 2 27 9.9l173.8 121.1H652c92.4 0 168 76.5 168 170.1V661.9C820 755.5 744.4 832 652 832zM820 549.1v-42.7c58.9-14.2 98-73.1 98-153.1V-7L762.3 101.5l-10.8 7.5H512c-59.4 0-109.2 42-122.4 98.3h-42.8C360.8 127.8 429.6 67 512 67h226.3l173.8-121.1c7.8-7.9 18-9.9 27-9.9s16.9 2 19.7 2c0.8 0 1.2-0.1 1.2-0.5V353.3c0 109.2-60.8 181.9-140 195.8z"  horiz-adv-x="1024" />

    
    <glyph glyph-name="xianshi1" unicode="&#59355;" d="M512 720C264.6 720 64 478.9 64 384c0-85 200.6-336 448-336s448 241.9 448 336c0 87.9-200.6 336-448 336z m0-616c-213.9 0-391.3 225.1-392 280 0 56.7 171.4 280 392 280 215.9 0 392-225.1 392-280 0-56.7-171.4-280-392-280z m0 420c-77.3 0-140-62.7-140-140s62.7-140 140-140 140 62.7 140 140-62.7 140-140 140z m0-224c-46.3 0-84 37.7-84 84s37.7 84 84 84 84-37.7 84-84-37.7-84-84-84z"  horiz-adv-x="1024" />

    
    <glyph glyph-name="shuaxin" unicode="&#59356;" d="M866.5 401.3c-4.6 18.8-25.1 29.4-42.1 22.4-13.7-5.9-21.6-22.4-18.2-36.5 5.7-23.6 8-48.3 8-73 0-177.9-143.5-321.6-317.8-313.3-154.9 7.1-281.4 137.8-288.2 298-6.8 179 132.1 327.5 304.1 327.5 37.6 0 74-7.1 108.2-20l-121.9-45.9c-15.9-5.9-23.9-24.7-18.2-41.2 5.7-16.5 23.9-24.7 39.9-18.8l188 70.7c1.1 0 2.3 1.2 3.4 1.2 15.9 5.9 23.9 24.7 18.2 41.2L660.4 811.3c-5.7 16.5-23.9 24.7-39.9 18.8-15.9-5.9-23.9-24.7-18.2-41.2l43.3-123.7c-43.3 17.7-91.1 27.1-142.4 25.9-193.7-4.7-352-168.5-355.4-369.9C143.2 108 310.6-66.3 515.7-64c193.7 2.4 353.1 163.7 360 364 2.2 35.4-1.2 69.5-9.2 101.3z m0 0"  horiz-adv-x="1024" />

    
    <glyph glyph-name="tupianyanzheng" unicode="&#59357;" d="M511.9-64c-126.1 0-360.8 200.8-360.8 390.7V689.2c0 8.8 6.9 15.9 15.4 16.1l20.4 0.4c0.8 0 80.9 1.7 163.5 36.7 84.8 35.8 139.4 76.9 140 77.3l12.1 9.1c2.8 2.1 6 3.2 9.3 3.2 3.3 0 6.6-1 9.3-3.1l12.3-9.2c0.5-0.4 55.2-41.6 140-77.4 82.7-34.9 162.8-36.7 163.6-36.7l20.3-0.4c8.6-0.2 15.5-7.3 15.5-16.1l0.1-362.5c0-189.8-234.7-390.6-361-390.6z m305.3 711c-31 2.5-96.3 11-164 39.7C583.9 716 533 748.8 512 763.3c-21-14.4-72-47.3-141.2-76.6-67.7-28.6-132.7-37.2-164.2-39.7v-320.3c0-148.9 204.4-331 305.3-331 39.1 0 115.3 33.9 190.2 108.3 72.2 71.7 115.3 154.9 115.3 222.7l-0.2 320.3zM483 265.9c-5.2-5.6-12.2-8.8-19.6-8.8-7.1 0-14.2 2.9-19.7 8.8l-83.3 89.5c-10.9 11.7-10.9 30.6 0 42.2 10.9 11.7 28.4 11.7 39.2 0l63.7-68.5 160.8 173c10.8 11.7 28.4 11.7 39.2 0 10.9-11.6 10.9-30.5 0-42.2L483 265.9z m0 0"  horiz-adv-x="1024" />

    
    <glyph glyph-name="shibai" unicode="&#59358;" d="M512 832C264.6 832 64 631.4 64 384s200.6-448 448-448 448 200.6 448 448S759.4 832 512 832z m-16-294.4h31.4c7.7 0 13.5-2.6 12.8-14.3l-7.2-187c-0.3-5.3-4.5-9.5-9.6-9.5h-23.5c-5 0-9.3 4.2-9.6 9.5l-7.2 187c-0.6 11.6 5.1 14.3 12.9 14.3z m15.7-307.2c-17.7 0-32 14.4-32 32.2 0 17.8 14.3 32.1 32 32.1s32-14.4 32-32.1c0-17.8-14.4-32.2-32-32.2z"  horiz-adv-x="1024" />

    
    <glyph glyph-name="shoujihao" unicode="&#59359;" d="M764 832H260c-46.2 0-84-37.8-84-84v-728c0-46.2 37.8-84 84-84h504c46.2 0 84 37.8 84 84V748c0 46.2-37.8 84-84 84z m28-812c0-15.2-12.8-28-28-28H260c-15.2 0-28 12.8-28 28V182.2h560V20z m0 218.2H232V748c0 15.2 12.8 28 28 28h504c15.2 0 28-12.8 28-28v-509.8zM512 27c30.8 0 56 25.2 56 56s-25.2 56-56 56-56-25.2-56-56 25.2-56 56-56z"  horiz-adv-x="1024" />

    
    <glyph glyph-name="weixinbangding" unicode="&#59360;" d="M512-64C264.6-64 64 136.6 64 384S264.6 832 512 832s448-200.6 448-448-200.6-448-448-448z m-82.7 651.7c-111.2 0-202.4-68.3-202.4-157.7 0-50.6 29.9-92 80.5-124.8l-20.7-56.5 72 33.5c24.9-6.6 44.2-10.5 70.6-10.5 5.7 0 12.1 0 17.8 0.6-3.6 13.2-5.7 25.6-5.7 39.4 0 80.8 74.8 147.8 171.8 147.8 5.7 0 12.1-0.6 19.2-1.9-17.1 76.2-104.7 130.1-203.1 130.1z m196-138.6c-95.5 0-171.1-60.4-171.1-135.3s75.6-135.4 171.1-135.4c20.7 0 40.6 5.9 61.3 9.9l54.2-28.3-14.2 47.3c39.9 27 70.6 64.4 70.6 106.5-0.1 74.9-81.4 135.3-171.9 135.3z m56.3-111c-10.7 0-19.9 8.6-19.9 17.1 0 10.5 9.3 19 19.9 19 14.3 0 25-8.5 25-19 0-8.6-10.7-17.1-25-17.1z m-111.9 0c-10 0-19.9 8.6-19.9 17.1 0 10.5 10 19 19.9 19 15 0 25.7-8.5 25.7-19 0-8.6-10.7-17.1-25.7-17.1z m-65.6 124.8c-15 0-29.2 9.2-29.2 23 0 14.5 14.3 23 29.2 23 15.7 0 25.7-8.5 25.7-23 0-13.8-10-23-25.7-23z m-141.1 0c-15 0-30.6 9.2-30.6 23 0 14.5 15.7 23 30.6 23 14.2 0 25.7-8.5 25.7-23 0-13.8-11.4-23-25.7-23z"  horiz-adv-x="1024" />

    
    <glyph glyph-name="qingchu1" unicode="&#59361;" d="M512 832C264.6 832 64 631.4 64 384s200.6-448 448-448 448 200.6 448 448S759.4 832 512 832z m193.7-610c8.7-8.8 8.7-22.9 0-31.7-8.7-8.7-22.9-8.7-31.7 0l-162 162-162-162c-8.7-8.7-22.9-8.7-31.7 0-8.7 8.8-8.7 22.9 0 31.7l162 162-162 162c-8.7 8.7-8.7 22.9 0 31.7s22.9 8.8 31.7 0l162-162 162 162c8.7 8.8 22.9 8.8 31.7 0 8.7-8.7 8.7-22.9 0-31.7l-162-162 162-162z"  horiz-adv-x="1024" />

    
    <glyph glyph-name="shenhe1" unicode="&#59362;" d="M512 832C264.6 832 64 631.4 64 384s200.6-448 448-448 448 200.6 448 448S759.4 832 512 832z m161-609.9c-5-4.8-5.4-5-10.3-3.2h-0.2c-11.7 9.7-22.8 20-33.3 30.9L599 279.6l-17.8-11.1c-11.4-6.9-23.4-12.7-35.9-17.2-16.7-5.6-20.7-6-48.1-6s-31 0-48.1 6.4c-22.8 7.2-43.2 20.3-59.3 38-17.8 16.7-31.1 37.7-38.6 60.9-5 15.1-5.6 19.5-5.6 47.6s0 32.4 5.6 47.6c7.5 23.2 20.8 44.2 38.6 60.9 16.6 17.9 37.6 31.2 60.9 38.6 15.1 4.9 19.4 5.6 47.5 5.6s32.4 0 47.5-5.6c23.3-7.4 44.3-20.7 60.9-38.6 28.2-26 44.5-62.5 45-100.8 2.4-32.8-6.4-65.5-25-92.6L616.3 298l31-31.4c20.7-20.6 31-33 31-35.7-0.6-3.5-2.5-6.6-5.3-8.8z m-47 175c1.4 14.5-0.5 29.1-5.6 42.7-10.5 30.8-32.4 56.6-61.1 72.1-15.7 9.2-33.4 14.4-51.6 15.1-22.9 2.3-46-2.2-66.3-13-20.8-10-38.5-25.6-51-44.9-14.5-20.5-21.6-45.4-20-70.4-1.1-14.2 0.9-28.4 5.8-41.7 10.9-31.8 34-58.1 64.2-73.1 26.1-13.7 56.2-17.9 85-11.7h-0.4c44.1 9.6 80 41.3 95 83.7 5.1 13.2 7.2 27.2 6 41.2z m-154.3 79.1c0-4.5-3.3-7.6-12.4-13.6-12.2-8.2-22.3-19.2-29.3-32-5.2-10.8-13.4-13.5-21.1-6.5-5.8 5.4-5.8 8 0.8 20.6 10.3 19.9 38.8 45.1 51.6 45.1 6.7-1 11.3-7 10.4-13.6z m127.1-93.3c-6.5-41.2-37.5-74.3-78.3-83.5-17.7-4.3-23-4.3-28.7-0.1h-0.2c-5.4 4.6-6.2 12.7-1.7 18.2 4.6 2.6 9.6 4.1 14.9 4.5 16.8 1.6 32.7 8.6 45 20.1 13.8 12.7 22.5 29.8 24.8 48.4 3.1 17.4 5 19.9 14.5 19 9.5-0.7 12.8-8.1 9.7-26.6z"  horiz-adv-x="1024" />

    
    <glyph glyph-name="nv" unicode="&#59363;" d="M816.1 528C816.1 695.9 680 832 512 832c-167.9 0-304.1-136.1-304.1-304 0-151.6 110.9-277.3 256.1-300.3V160H304v-96h160v-128h96V64h160v96H560v67.8c145.1 23 256.1 148.6 256.1 300.2zM304 528c0 114.9 93.2 208 208 208 114.9 0 208-93.1 208-208s-93.1-208-208-208-208 93.1-208 208z m0 0"  horiz-adv-x="1024" />

    
    <glyph glyph-name="nan" unicode="&#59364;" d="M156.8 485c-124.3-124.4-123-327.5 3-453.6 125.9-126.1 328.8-127.4 453.1-3C725.2 140.8 735 317.2 643.2 443.2l220 220.2 18.9-147.7 77.5 17.1L922 800.6 647.4 832l-6.1-78.8 149.9-17.6-220.1-220.3c-125.9 91.9-302.1 82-414.3-30.3z m384.1-384.5c-85-85.1-223.9-84.2-310 2-86.2 86.3-87.1 225.2-2 310.3 85 85.1 223.9 84.2 310-2 86.1-86.1 87-225.1 2-310.3z m0 0"  horiz-adv-x="1024" />

    
    <glyph glyph-name="tishi" unicode="&#59365;" d="M512 832C264.6 832 64 631.4 64 384s200.6-448 448-448 448 200.6 448 448S759.4 832 512 832z m0-840c-216.2 0-392 175.9-392 392s175.9 392 392 392 392-175.9 392-392-175.9-392-392-392z m0 437.9c-23.1 0-42-18.9-42-42v-196c0-23.1 18.9-42 42-42s42 18.9 42 42v196c0 23.1-18.9 42-42 42z m0 140c-23.2 0-42-18.8-42-42s18.8-42 42-42 42 18.8 42 42-18.8 42-42 42z"  horiz-adv-x="1024" />

    
    <glyph glyph-name="mima" unicode="&#59366;" d="M885.3-64H138.7V519.1h75.8c0 1.8-0.3 3.5-0.3 5.4C214.3 694.3 347.9 832 512.7 832s298.4-137.7 298.4-307.6c0-1.8-0.2-3.6-0.3-5.4h74.5v-583zM761.9 524.4c0 141.6-111.8 256.9-249.2 256.9S263.5 666.1 263.5 524.4c0-1.8 0.2-3.6 0.3-5.4h497.9c0 1.8 0.2 3.6 0.2 5.4z m69.1-61.3H193v-471.2h638V463.1z m-318.3-98.5c51.1 0 94.2-39.3 100.5-91.6 6.2-52.3-26.4-101.2-76-113.9v-91.8h-48.9V159c-49.6 12.7-82.2 61.6-76 113.9 6.1 52.3 49.2 91.7 100.4 91.7z m0-158.3c28.9 0 52.3 24.2 52.3 53.9 0 29.8-23.4 53.9-52.3 53.9s-52.3-24.2-52.3-54c-0.1-29.7 23.4-53.8 52.3-53.8z"  horiz-adv-x="1024" />

    
    <glyph glyph-name="leixing-biaoqian" unicode="&#59367;" d="M593.3 770.3l242-63 63-242L455 22 150 327l443.3 443.3M591.9 832c-14.6 0-28.7-5.8-39.1-16.2L64 327l391-391 488.8 488.8c12.3 12.3 18.1 29.7 15.6 46.9l-74.3 285.4-285.4 74.3c-2.6 0.4-5.2 0.6-7.8 0.6zM670.1 568.8c4.1 0 12.1-1 18.9-7.8 10.4-10.4 10.4-27.4 0-37.8-6.8-6.8-14.8-7.8-18.9-7.8s-12.1 1-18.9 7.8c-10.4 10.4-10.4 27.4 0 37.8 6.8 6.8 14.8 7.8 18.9 7.8m0 60.8c-22.4 0-44.8-8.5-61.9-25.6-34.2-34.2-34.2-89.6 0-123.8 17.1-17.1 39.5-25.6 61.9-25.6s44.8 8.5 61.9 25.6c34.2 34.2 34.2 89.6 0 123.8-17.1 17.1-39.5 25.6-61.9 25.6z"  horiz-adv-x="1024" />

    
    <glyph glyph-name="gerenzhongxin" unicode="&#59368;" d="M512-64C264.6-64 64 136.6 64 384S264.6 832 512 832s448-200.6 448-448-200.6-448-448-448z m-5.5 691.9c-31.5 0.3-61.7-12.5-84.2-35.5-22.4-23-35.2-54.3-35.4-87.1 0-67.4 52.3-122.2 117-122.6 64.7-0.4 117.6 53.8 118.3 121.2 0.7 67.5-51 122.9-115.7 124z m209.3-444.4c-0.3 42.4-16.7 82.9-45.7 112.6-29 29.7-68.1 46.2-108.8 45.9h-98.6c-40.7 0.4-79.8-16.1-108.8-45.9-29-29.7-45.4-70.3-45.7-112.6v-10.3c0-34.2 69-34.2 154.5-34.2h98.6c85.1 0 154.5 0 154.5 34.2v10.3z"  horiz-adv-x="1024" />

    
    <glyph glyph-name="gengduo" unicode="&#59369;" d="M167.4 487.4C110.3 487.4 64 441.1 64 384c0-57.1 46.3-103.4 103.4-103.4 57.1 0 103.4 46.3 103.4 103.4 0 57.1-46.3 103.4-103.4 103.4z m344.6 0c-57.1 0-103.4-46.3-103.4-103.4 0-57.1 46.3-103.4 103.4-103.4 57.1 0 103.4 46.3 103.4 103.4 0 57.1-46.3 103.4-103.4 103.4z m344.6 0c-57.1 0-103.4-46.3-103.4-103.4 0-57.1 46.3-103.4 103.4-103.4 57.1 0 103.4 46.3 103.4 103.4 0 57.1-46.3 103.4-103.4 103.4z"  horiz-adv-x="1024" />

    
    <glyph glyph-name="gou" unicode="&#59370;" d="M512 832C264.6 832 64 631.4 64 384s200.6-448 448-448 448 200.6 448 448S759.4 832 512 832z m198.7-348.3L473.1 246.1l-1.3-1.3c-5.3-5.3-12.2-7.9-19.1-7.9-6.9 0-13.9 2.6-19.1 7.9l-1.3 1.3-119 118.8c-10.5 10.5-10.5 27.7 0 38.3l1.3 1.3c10.5 10.5 27.7 10.5 38.3 0l99.7-99.7 218.5 218.5c10.5 10.5 27.7 10.5 38.3 0l1.3-1.3c10.5-10.6 10.5-27.8 0-38.3z"  horiz-adv-x="1024" />

    
    <glyph glyph-name="dianhua" unicode="&#59371;" d="M872.2 213.5c-83.1 53.2-95.9 59.8-124.7 56.5-28.8-3.3-38.4-10-79.9-73.1-6.4-6.6-60.8-93-262.2 99.7C258.3 452.7 303 509.2 328.6 545.8c25.6 23.3 51.2 36.6 57.6 76.4 0 19.9-3.2 59.8-64 142.9-41.6 63.1-48 66.5-76.7 66.5-25.6 3.3-70.4-13.3-115.1-49.8-44.8-29.9-57.6-66.5-64-106.3-6.4-53.2-16-232.6 204.7-478.5 220.6-249.2 505.2-302.4 607.6-232.6 41.6 33.2 76.7 99.7 79.9 142.9 6.4 33-6.4 56.3-86.4 106.2z m0 0"  horiz-adv-x="1024" />

    
    <glyph glyph-name="shangchuan" unicode="&#59372;" d="M960 354.1H541.9V-64h-59.7V354.1H64v59.7h418.1V832h59.7v-418.1H960v-59.8z"  horiz-adv-x="1024" />

    
    <glyph glyph-name="bofang-o" unicode="&#59373;" d="M676.4 423.4L449.1 554.6c-30.3 17.5-68.2-4.3-68.2-39.3v-262.5c0-35 37.9-56.9 68.2-39.4l227.3 131.2c30.3 17.5 30.3 61.3 0 78.8zM512 832C264.6 832 64 631.4 64 384s200.6-448 448-448 448 200.6 448 448S759.4 832 512 832z m0-837.9C297-5.9 122.1 169 122.1 384c0 215 174.9 389.9 389.9 389.9 215 0 389.9-174.9 389.9-389.9 0-215-174.9-389.9-389.9-389.9z"  horiz-adv-x="1024" />

    
    <glyph glyph-name="yuyin" unicode="&#59375;" d="M638.6 832l-72.2-71.2c109.7-92.6 179.5-229.9 179.5-383.5 0-146.3-63.5-277.7-164.3-369.9L654-64c119.3 110.5 194.2 267 194.2 441.1C848.1 558.6 766.8 721 638.6 832zM248.9 463.7c-40.4 0-73.1-32.3-73.1-72.1s32.7-72.1 73.1-72.1c40.4 0 73.1 32.3 73.1 72.1s-32.7 72.1-73.1 72.1z m194.9 176.1l-74.4-73.3c67.6-36.9 113.4-107.8 113.4-189.3 0-74-37.8-139.3-95.3-178.3l73-72c75.7 58.1 124.6 148.5 124.6 250.3 0 109.2-56 205.6-141.3 262.6z"  horiz-adv-x="1024" />

    
    <glyph glyph-name="shipin" unicode="&#59376;" d="M885.3 197.3L736 257.1V160c0-41.2-33.4-74.7-74.7-74.7H138.7C97.4 85.3 64 118.8 64 160V608c0 41.3 33.4 74.7 74.7 74.7h522.7c41.2 0 74.7-33.4 74.7-74.7v-97.1l149.3 59.7c41.2 0 74.7-33.4 74.7-74.7v-224c-0.1-41.1-33.5-74.6-74.8-74.6zM680 608c0 10.3-8.4 18.7-18.7 18.7H138.7c-10.3 0-18.7-8.4-18.7-18.7v-448c0-10.3 8.4-18.7 18.7-18.7h522.7c10.3 0 18.7 8.4 18.7 18.7V608z m224-112c0 7.8-4.7 14.4-11.5 17.2l-137.8-55.1v-148.2l137.8-55.1c6.7 2.8 11.5 9.5 11.5 17.2V496z m-634.7-65.3c-30.9 0-56 25.1-56 56s25.1 56 56 56 56-25.1 56-56c0-31-25-56-56-56z"  horiz-adv-x="1024" />

    
    <glyph glyph-name="bofang1" unicode="&#59377;" d="M711.1 312.70000000000005l-309-237.5c-59.5-31.7-133.8 7.9-133.8 71.2V621.6c0 63.3 74.3 102.9 133.8 71.2l309-237.5c59.5-31.7 59.5-110.9 0-142.6z"  horiz-adv-x="1024" />

    
    <glyph glyph-name="zanting" unicode="&#59378;" d="M329.3 704c-42.1 0-76.2-34.1-76.2-76.2v-487.6c0-42.1 34.1-76.2 76.2-76.2s76.2 34.1 76.2 76.2V627.8c0 42.1-34.1 76.2-76.2 76.2z m365.4 0c-42.1 0-76.2-34.1-76.2-76.2v-487.6c0-42.1 34.1-76.2 76.2-76.2s76.2 34.1 76.2 76.2V627.8c0 42.1-34.1 76.2-76.2 76.2z"  horiz-adv-x="1024" />

    
    <glyph glyph-name="yinp" unicode="&#58993;" d="M430.5 58.200000000000045h162.9V302.5H430.5v-244.3Zm366.6 651.6v-651.6H960V709.8H797.1ZM64 58.200000000000045h162.9V546.9H64v-488.7Z"  horiz-adv-x="1024" />

    


  </font>
</defs>
</svg>
